<svg xmlns="http://www.w3.org/2000/svg" width="100" height="100" viewBox="0 0 100 100">
  <metadata><?xpacket begin="﻿" id="W5M0MpCehiHzreSzNTczkc9d"?>
<x:xmpmeta xmlns:x="adobe:ns:meta/" x:xmptk="Adobe XMP Core 5.6-c138 79.159824, 2016/09/14-01:09:01        ">
   <rdf:RDF xmlns:rdf="http://www.w3.org/1999/02/22-rdf-syntax-ns#">
      <rdf:Description rdf:about=""/>
   </rdf:RDF>
</x:xmpmeta>





















<?xpacket end="w"?></metadata>
<defs>
    <style>
      .cls-1 {
        fill: #ff8000;
        fill-rule: evenodd;
      }
    </style>
  </defs>
  <path class="cls-1" d="M42,77S32.225,66.616,31.785,66.473C24.165,64,13.7,59.118,13.552,47c-2.7-26.362,25.19-31.447,37.494-31,23.49,0.224,35.218,11.609,34.3,30S63,67,63,67s7,8.428,7,7.8c0-.2-7,10.2-7,10.2s19.845-5.1,22.954-21c3.629-18.553-18.609-31-34.448-31,23.8,0-46.469-6.667-38.414,32C15.2,75.122,24.616,81.347,31.928,83.538,32.029,83.568,42,77,42,77h0Z"/>
</svg>
