<svg xmlns="http://www.w3.org/2000/svg" width="100" height="100" viewBox="0 0 100 100">
  <metadata><?xpacket begin="﻿" id="W5M0MpCehiHzreSzNTczkc9d"?>
<x:xmpmeta xmlns:x="adobe:ns:meta/" x:xmptk="Adobe XMP Core 5.6-c138 79.159824, 2016/09/14-01:09:01        ">
   <rdf:RDF xmlns:rdf="http://www.w3.org/1999/02/22-rdf-syntax-ns#">
      <rdf:Description rdf:about=""/>
   </rdf:RDF>
</x:xmpmeta>
                                                                                                    
                                                                                                    
                                                                                                    
                                                                                                    
                                                                                                    
                                                                                                    
                                                                                                    
                                                                                                    
                                                                                                    
                                                                                                    
                                                                                                    
                                                                                                    
                                                                                                    
                                                                                                    
                                                                                                    
                                                                                                    
                                                                                                    
                                                                                                    
                                                                                                    
                                                                                                    
                           
<?xpacket end="w"?></metadata>
<defs>
    <style>
      .cls-1 {
        fill: #ff8000;
        fill-rule: evenodd;
      }
    </style>
  </defs>
  <path class="cls-1" d="M17,32H34.375c0.784,0,3.408,1.587,2.533,3.644C34.2,42.009,32.4,49.19,34.277,55.036,37.009,63.524,47.817,66,50.625,66c2.412,0,12.824-3.407,15.184-11.307,1.873-6.27.6-13.9-1.719-19.392A2.357,2.357,0,0,1,65.625,32H84a9,9,0,0,1,9,9V65a9,9,0,0,1-9,9H17a9,9,0,0,1-9-9V41A9,9,0,0,1,17,32Z"/>
  <path class="cls-1" d="M61,2c-0.167-.092-5.826,22.661-0.421,38.443C60.825,43.05,63,45.182,63,48a13,13,0,1,1-21.807-9.562A226.927,226.927,0,0,1,61,2Z"/>
</svg>
