<svg id="hands" xmlns="http://www.w3.org/2000/svg" width="400" height="700" viewBox="0 0 250 700" onload="init(evt)">
  <defs>
    <style>
      .cls-1 {
        fill: #fbdece;
      }
      .cls-1:hover {
        fill: #FF4D4D;
      }


      .cls-1, .cls-2 {
        stroke: #AF9B90;
        stroke-width: 1px;
        fill-rule: evenodd;
      }

      .cls-2 {
        fill: none;
      }
      text {
        font-size: 25px;
        font-weight: 600;
      }

    </style>
  </defs>
  <g id="transformer" transform="translate(0,0),scale(1,1)">
  <path id="hands-2" data-name="hands" class="cls-1" onmousemove="ShowTooltip(evt, 'ხელი')" onmouseout="HideTooltip()" d="M56,125l21-9s2.619,7.828-.026,20.837c-1.337,6.574-5.742,14.472-6.941,23.352-0.518,3.838.978,11.86,0.48,16.038-1.825,15.332-3.909,31.348-6.184,48.368-1.548,11.579.816,26.623-.887,39.233-4.051,30-19.281,58.872-23.774,81.409-1.555,7.8,1.82,15.84,1.717,21.906-0.058,3.379-1.213,6.352-1.418,8.929C39.272,384.819,37,389,37,389s-0.426,3.971-3.981,2.7c-0.46-.165-0.938.833-1.433,1.04a23.821,23.821,0,0,1-2.194,1.211c-1.031.35-2.1,0.672-3.183,0.944-0.359.09-.719,1.187-1.081,1.291-1.868.537-2.771-1.086-4.617-.978a13.746,13.746,0,0,1-4.141-.476c-1.364-.479-1.66.729-2.845-0.2a12.089,12.089,0,0,1-2.306-2.187C9.228,390.065,10,386,10,386a34.347,34.347,0,0,1,2.534-9.413c1.516-3.75,3.581-8.853,2.911-12.1C14.769,361.208-1.216,371,.16,365.638c0.57-2.219,5.595-5.274,9.644-8.423,4.107-3.195,8.238-7.486,8.811-10.1q0.625-2.853,1.234-5.832c2.387-11.7,4.8-24.807,6.526-38.622,1.023-8.2,1.155-16.644,2.664-25.2,2.6-14.716,5.077-29.747,7.229-44.356,5.3-36.012,2.5-69.464,6.22-89.348C44.687,132.011,56,125,56,125Zm138,1-21-9s-2.619,7.828.026,20.837c1.337,6.574,5.742,14.472,6.941,23.352,0.518,3.838-.977,11.86-0.48,16.038,1.824,15.332,3.908,31.348,6.183,48.368,1.548,11.579-.816,26.623.887,39.233,4.051,30,19.281,58.872,23.774,81.409,1.554,7.8-1.821,15.84-1.717,21.906,0.058,3.379,1.213,6.352,1.418,8.929C210.728,385.819,213,390,213,390s0.426,3.971,3.982,2.7c0.459-.165.938,0.833,1.432,1.04a23.876,23.876,0,0,0,2.194,1.211c1.031,0.35,2.1.672,3.184,0.944,0.358,0.09.719,1.187,1.081,1.291,1.868,0.537,2.771-1.086,4.616-.978a13.743,13.743,0,0,0,4.141-.476c1.364-.479,1.66.729,2.846-0.2a12.068,12.068,0,0,0,2.306-2.187C240.772,391.065,240,387,240,387a34.345,34.345,0,0,0-2.534-9.413c-1.516-3.75-3.581-8.853-2.911-12.1,0.676-3.279,16.661,6.51,15.285,1.151-0.57-2.219-5.595-5.274-9.644-8.423-4.107-3.195-8.238-7.486-8.81-10.1q-0.626-2.853-1.234-5.832c-2.387-11.7-4.8-24.807-6.526-38.622-1.023-8.2-1.155-16.644-2.664-25.2-2.6-14.716-5.077-29.747-7.228-44.356-5.3-36.012-2.5-69.464-6.221-89.348C205.313,133.011,194,126,194,126Z"/>
  <path id="hand_line" class="cls-2" d="M19,349l1.823-1.094A17.18,17.18,0,0,0,24,345m15-1a7.753,7.753,0,0,1-1.2,2.2,2.609,2.609,0,0,1-1.8.8m195,3-1.823-1.094A17.174,17.174,0,0,1,226,346m-15-1a7.763,7.763,0,0,0,1.2,2.2,2.608,2.608,0,0,0,1.8.8"/>
  <path id="chest-2" data-name="chest" onmousemove="ShowTooltip(evt, 'მკერდი')" onmouseout="HideTooltip()" class="cls-1" d="M76,117a25.2,25.2,0,0,1,17-7h62c10.406,0,18,8,18,8a83.772,83.772,0,0,0,2,19c1.344,6.439,6,14.125,6,22,0,26.358-8,58-8,58a419.635,419.635,0,0,0-47-3,487.672,487.672,0,0,0-50,3s-1.419-6.375-2.979-15.807C71.116,189.673,69,173.594,69,159c0-7.853,5.856-15.483,7-22C78.067,125.231,76,117,76,117Z"/>
  <path id="chest_boob" class="cls-2" d="M74,201s13.127,16.178,24,13c18.785-5.49,19-27,19-27"/>
  <path id="chest_boob-2" data-name="chest_boob" class="cls-2" d="M176,201s-13.127,16.178-24,13c-18.785-5.49-19-27-19-27"/>
  <path id="neck" class="cls-1" onmousemove="ShowTooltip(evt, 'კისერი')" onmouseout="HideTooltip()" d="M106.267,79h36.119S140.765,88.638,144,96c3.56,8.1,12.006,14,12.006,14s-15.878,5-32.006,5c-15.73,0-31.72-5-31.72-5A35.3,35.3,0,0,0,103,97C106.329,89.622,106.267,79,106.267,79Z"/>
  <path id="head_ear_right" class="cls-1" d="M89.773,42.076c2.633-.706,6.163,3.933,7.885,10.359s0.984,12.208-1.649,12.914-6.163-3.933-7.885-10.359S87.141,42.781,89.773,42.076Z"/>
  <path id="head_ear_right-2" data-name="head_ear_right" class="cls-1" d="M156.227,42.076c-2.633-.706-6.164,3.933-7.886,10.359s-0.983,12.208,1.65,12.914,6.163-3.933,7.885-10.359S158.86,42.781,156.227,42.076Z"/>
  <path id="head-2" data-name="head" class="cls-1" onmousemove="ShowTooltip(evt, 'თავი')" onmouseout="HideTooltip()" d="M123,2c9.282,0,20.319,5.139,26,14,4.8,7.484,5,17.753,5,28.5,0,10.272-4.575,23.153-9,30.5-5.686,9.442-12.372,14-22,14s-16.314-5.562-22-15c-4.427-7.348-9-19.225-9-29.5,0-11.789,2.346-23.8,8-31.5C105.6,5.37,114.478,2,123,2Z"/>
  <path id="abdomen-2" data-name="abdomen" class="cls-1" onmousemove="ShowTooltip(evt, 'მუცელი')" onmouseout="HideTooltip()" d="M75,216s25.953-3,51-3a392.673,392.673,0,0,1,45.647,3A201.046,201.046,0,0,0,173,258c3.909,26.421,13,51,13,51s-30.19,7-61,7c-31.361,0-63.353-7-63.353-7S71.088,283.442,75,257A149.189,149.189,0,0,0,75,216Z"/>
  <path id="abdomen_navel" class="cls-2" d="M126,272v4"/>
  <path id="legs-2" data-name="legs" class="cls-1" onmousemove="ShowTooltip(evt, 'ფეხი')" onmouseout="HideTooltip()" d="M59,321l63,42s0.39,65.247.825,138.15c0.063,10.509-5.192,21.177-5.511,31.831-0.481,16.052,3.892,32.074,3.984,47.476,0.149,24.9-3.233,48.789-3.554,68.222-0.091,5.5,1.9,10.645,2.041,15.354,0.2,6.858,3.4,11.9,3.572,16.942C123.729,691.757,124,694,124,694s-0.874,3.652-3.829,4.486c-2.683.757-6.466-.964-10.567-0.939-4.866.028-10.178,1.7-14.63,1.38A32.8,32.8,0,0,1,82,695s-0.077,2.735-.231-3.186c-0.094-3.631,4.742-6.412,8.3-11.107a25.771,25.771,0,0,0,4.862-16.036c-0.655-22.177-14.609-62.972-15.864-95.718-0.275-7.19-1.565-9.523-1.87-16.948-0.683-16.668,4.561-33.8,3.731-50.852-1.185-24.356-21.573-125.2-22.787-145.089C56.815,334.366,59,321,59,321Zm130,0-63,42s-0.39,65.247-.825,138.15c-0.063,10.509,5.192,21.177,5.511,31.831,0.481,16.052-3.892,32.074-3.984,47.476-0.149,24.9,3.233,48.789,3.554,68.222,0.091,5.5-1.9,10.645-2.041,15.354-0.2,6.858-3.4,11.9-3.572,16.942C124.271,691.757,124,694,124,694s0.874,3.652,3.829,4.486c2.683,0.757,6.466-.964,10.567-0.939,4.866,0.028,10.178,1.7,14.63,1.38A32.8,32.8,0,0,0,166,695s0.077,2.735.231-3.186c0.095-3.631-4.742-6.412-8.3-11.107a25.767,25.767,0,0,1-4.861-16.036c0.654-22.177,14.609-62.972,15.864-95.718,0.275-7.19,1.565-9.523,1.869-16.948,0.684-16.668-4.56-33.8-3.731-50.852,1.185-24.356,21.573-125.2,22.787-145.089C191.185,334.366,189,321,189,321Z"/>
  <path id="pelvis-2" data-name="pelvis" class="cls-1" onmousemove="ShowTooltip(evt, 'საზარდული')" onmouseout="HideTooltip()" d="M62,308s32.54,7,64,7c30.526,0,60-7,60-7l3,14s-27.333,16.957-38.516,27.058C138.974,359.453,127.828,363,127.518,363h-4.974c-0.667,0-12.119-3.4-24.031-13.722C86.771,339.1,59,322,59,322Z"/>
  <path id="pelvis_line" class="cls-2" d="M122,363a83.007,83.007,0,0,1-8.634-11A62.754,62.754,0,0,1,108,341"/>
  <path id="pelvis_line-2" data-name="pelvis_line" class="cls-2" d="M127,363a83.007,83.007,0,0,0,8.634-11A62.754,62.754,0,0,0,141,341"/>
</g>
<text class="tooltip" id="tooltip" x="0" y="0">e</text>

<script type="text/ecmascript">
<![CDATA[
  function init(evt){

    if ( window.svgDocument == null ){

      svgDocument = evt.target.ownerDocument;
    }
    tooltip = svgDocument.getElementById('tooltip');
  }

  function ShowTooltip(evt, mouseovertext){

  tooltip.setAttributeNS(null,"x",evt.clientX-60);
  tooltip.setAttributeNS(null,"y",evt.clientY+40);
  tooltip.firstChild.data = mouseovertext;
  tooltip.setAttributeNS(null,"visibility","visible");
}

function HideTooltip(){

  tooltip.setAttributeNS(null,"visibility","hidden");
}
]]>
</script>

</svg>
