<svg xmlns="http://www.w3.org/2000/svg" width="400" height="700" viewBox="0 0 400 700" onload="init(evt)">
<defs>
    <style>
      .cls-1 {
        fill: #ed1c24;
        opacity: 0;
        fill-rule: evenodd;
      }
      .cls-1:hover {
      opacity: 0.5;
      }
      text {
        font-size: 30px;
        font-weight: 600;
      }
    </style>
  </defs>
  <path id="neck" class="cls-1" onmousemove="ShowTooltip(evt, 'კისერი')" onmouseout="HideTooltip()" d="M177.441,75.1s11.1,10.437,23.232,10.437c11.752,0,22.7-10.437,22.7-10.437s-4.927,17.392,1.422,29.278c3.3,6.171,20.632,10.858,20.632,10.858s-22.245,12.349-44.7,12.349c-22.874,0-45.962-12.349-45.962-12.349s17.3-4.616,20.558-10.717C181.676,92.626,177.441,75.1,177.441,75.1Z"/>
  <path id="chest" class="cls-1" onmousemove="ShowTooltip(evt, 'ზურგი')" onmouseout="HideTooltip()" d="M153.337,114c0.983-.328,24.659,12.967,48.71,12.967,22.893,0,43.842-13.622,45.235-12.967-0.82,8.841.193,9.194,2.733,19.115,1.7,6.628,6.151,12.83,5.982,21.26,13.818,19.147-6.513,77.012-7.29,85.941s11.755,48.54,11.755,48.54-33.022,4.59-59.241,4.59c-26.622,0-60.447-4.59-60.447-4.59s10.38-34.652,11.35-46.493-14.436-49.022-7.245-88.058c-0.094-8.8,3.847-14.724,5.585-21.5C152.877,123.392,152.763,121.284,153.337,114Z"/>
  <path id="pelvis" class="cls-1" onmousemove="ShowTooltip(evt, 'საჯდომი')" onmouseout="HideTooltip()" d="M140.357,290.125s30.353,1.672,60.594,1.672c30.019,0,59.928-1.672,59.928-1.672l9.472,50.82s-15.523,19.319-34.079,20.163c-8.424.383-27.365-5.214-30.567-7.3s-4.593-1.942-9.882.007-21.4,7.734-30.964,7.3c-22.984-1.055-34.974-22.163-34.974-22.163Z"/>
  <path id="head" class="cls-1" onmousemove="ShowTooltip(evt, 'თავი')" onmouseout="HideTooltip()" d="M200.309,1c21.7,0,30.9,19.831,30.9,43.532,0,1.944,3.011-2.3,4.89,1.583,1.257,6.443-5.249,18.5-7.379,18.829-0.579,1.816-1.293,3.195-2.173,5.469-6.33,10-17.794,15.121-25.623,15.121s-20.438-4.718-26.776-15.8c-0.741-1.9-1.912-5.356-1.912-5.356S164.479,61,164.5,46.783c2.6-4.775,4.909-1.264,4.909-2.251C169.406,20.831,178.608,1,200.309,1Z"/>
  <path id="leg" class="cls-1" onmousemove="ShowTooltip(evt, 'ფეხი')" onmouseout="HideTooltip()" d="M129.885,339.945s14.472,19.347,30.074,20.453c15.725,0.123,35.406-6.525,35.406-6.525a213.746,213.746,0,0,1,1.146,25.142c-0.047,13.379-2.475,27.4-4.514,48.123-2.1,21.356-3.824,45.587-4.731,70.583,2.117,22.009,5.457,31.25,4.291,54.784-1.01,17.838-5.091,35.287-5.984,51.578-1.123,20.494,1.061,26.157.189,41.459-0.671,11.8-.031,23.595-0.51,30.7-0.549,8.142-3.957,12.741-3.957,12.741s-9.071,6.1-17.612.808c-10.986-6.8-8.439-9.709-13.217-13.8a8.646,8.646,0,0,1-2.255-10.83c3.739-3.936,5.537,1.029,10.686-16.513,3.17-10.8.283-13.985,1.6-32.877,2.015-28.958-12.852-66.612-11.931-96.491,0.312-10.133,3.948-20.026,3.391-29.465a186.363,186.363,0,0,0-4.742-33.582c-10.1-31.034-17.88-52.362-17.191-74.733,0.372-12.1-.483,21.745-0.1,11.874C131.014,365.572,129.885,339.945,129.885,339.945Zm140.466,1s-17.007,22.876-42.928,18.453-21.551-5.525-21.551-5.525a213.575,213.575,0,0,0-1.147,25.142c0.047,13.379,2.475,27.4,4.514,48.123,2.1,21.356,3.824,45.587,4.731,70.583-2.117,22.009-5.456,31.25-4.291,54.784,1.01,17.838,5.092,35.287,5.984,51.578,1.123,20.494.939,39.157,1.811,54.459,0.672,11.8-.969,8.595-0.49,15.7,0.549,8.142,3.957,12.741,3.957,12.741,0.032-.011,12.462,6.519,19.545,2.78s9.152-13.243,13.284-17.77-0.958-7.059-1.745-8.83c-5.9-5.9-1.537,7.029-6.686-10.513-3.17-10.8-4.124-17.946-3.6-36.877,1.008-36.215,13.968-39.1,10.93-96.491-0.535-10.123-3.948-20.026-3.391-29.465a186.363,186.363,0,0,1,4.742-33.582c10.1-31.034,14.563-48.816,17.192-77.82C272.019,404.533,270.351,340.945,270.351,340.945Z"/>
  <path id="hand" class="cls-1" onmousemove="ShowTooltip(evt, 'ხელი')" onmouseout="HideTooltip()" d="M122.961,134.757s5.614-11.684,13.43-15.438A68.984,68.984,0,0,1,153.337,114a83.881,83.881,0,0,1-3.065,20.264c-1.166,4.217-3.352,9.309-4.252,14.99a140.227,140.227,0,0,0-1.512,28.341c0.5,9.333,1.909,19.606-.732,28.482-11.956,25.6-18.61,41.532-24.277,53.532S80.008,311.69,69.808,329.288c-1.552,4.483-4.456,5.016-4.392,14.786-3.888,11.031-5.482,14.416-5.482,14.416s-2.944,24.02-7.058,22.033c-1.04-.5-1.918,1.106-2.484-0.266-1.721-4.166,5.214-22.287,2.157-22.1-1.785.109-4.923,14.085-8.2,21.858-1.5,3.56-4,4.843-4.688,4.627-0.492-.156-0.964-2.186-1.415-2.386-1.146-.511,8.782-24.223,7.538-24.127-1.61.124-12.368,25.539-13.655,25.6-1,.049-1.271.693-2,0.693-1.468,0-1.1-3.087-1.1-3.087s3.963-9.687,7.1-17.151c2.154-5.124,4.246-8.874,3.088-9.029-1.244-.166-7.526,12.337-12.072,19.255-2.55,3.879-4.554,4.732-4.818,3.7a12.848,12.848,0,0,1-.321-3.58c0.11-3.334,15.514-32.215,15.441-35.568-0.047-2.205-14.826,7.093-14.512,4.611q0.192-1.517.488-3.1c0.423-2.249,4.538-3.39,7.2-6.238,2.872-3.077,4.013-5.306,9.155-8.633s3.32,3.987,11.638-6.447S64.33,299.574,66.2,296.586c2.49-3.981-.871-0.031,8.274-16.427s5.946-17.5,15.927-33.382,12.771-26.876,17.44-41.9c3.246-10.445,5.6-20.891,8.132-29.692a107.4,107.4,0,0,0,4.084-26.25A48.64,48.64,0,0,1,122.961,134.757Zm156.078,0s-5.614-11.684-13.43-15.438C257.367,115.36,246.663,114,246.663,114a83.881,83.881,0,0,0,3.065,20.264c1.166,4.217,3.352,9.309,4.252,14.99,1.394,8.8,6.012,19.008,5.512,28.341s-3.909,19.606-1.268,28.482c11.956,25.6,18.61,41.532,24.277,53.532s39.492,52.083,49.691,69.681c1.552,4.483,4.456,5.016,4.393,14.786,3.888,11.031,5.482,14.416,5.482,14.416s2.944,24.02,7.057,22.033c1.04-.5,1.918,1.106,2.485-0.266,1.721-4.166-5.214-22.287-2.157-22.1,1.785,0.109,4.923,14.085,8.2,21.858,1.5,3.56,4,4.843,4.688,4.627,0.491-.156.964-2.186,1.414-2.386,1.146-.511-8.781-24.223-7.538-24.127,1.61,0.124,12.368,25.539,13.655,25.6,1,0.049,1.271.693,2,.693,1.467,0,1.1-3.087,1.1-3.087s-3.964-9.687-7.1-17.151c-2.154-5.124-4.245-8.874-3.087-9.029,1.244-.166,7.525,12.337,12.071,19.255,2.55,3.879,4.554,4.732,4.818,3.7a12.849,12.849,0,0,0,.322-3.58c-0.11-3.334-15.514-32.215-15.442-35.568,0.047-2.205,14.826,7.093,14.512,4.611q-0.192-1.517-.488-3.1c-0.424-2.249-4.538-3.39-7.2-6.238-2.872-3.077-4.012-5.306-9.154-8.633s-3.32,3.987-11.638-6.447-12.917-19.58-14.787-22.568c-2.49-3.981.871-.031-8.274-16.427s-5.946-17.5-15.927-33.382-12.771-26.876-17.44-41.9c-3.246-10.445-5.6-20.891-8.132-29.692a107.4,107.4,0,0,1-4.084-26.25A48.64,48.64,0,0,0,279.039,134.757Z"/>
  <text class="tooltip" id="tooltip" x="0" y="0" style="color:white;">e</text>

  <script type="text/ecmascript">
  <![CDATA[
    function init(evt){

      if ( window.svgDocument == null ){

        svgDocument = evt.target.ownerDocument;
      }
      tooltip = svgDocument.getElementById('tooltip');
    }

    function ShowTooltip(evt, mouseovertext){

    tooltip.setAttributeNS(null,"x",evt.clientX+40);
    tooltip.setAttributeNS(null,"y",evt.clientY+40);
    tooltip.firstChild.data = mouseovertext;
    tooltip.setAttributeNS(null,"visibility","visible");
  }

  function HideTooltip(){

    tooltip.setAttributeNS(null,"visibility","hidden");
  }

  function zoom(){

    var parts = document.getElementById("outer-head").getElementsByClassName("cls-1");
    var inner = document.getElementById("inner-head");

    for(var i = 0; i < parts.length; i++){
      inner.append(parts[i]);
    }

  }

  ]]>
  </script>
</svg>
