<svg id="figure" xmlns="http://www.w3.org/2000/svg" width="400" height="700" viewBox="0 0 400 700" onload="init(evt)">
<defs>
    <style>
      .cls-1 {
        fill: #ed1c24;
        opacity: 0;
        fill-rule: evenodd;
      }
      .cls-1:hover {
        opacity: 0.5;
      }
      text {
        font-size: 30px;
        font-weight: 600;
        fill: #fff;
      }
      #f-f-i-head,#f-f-i-neck,#f-f-i-chest,#f-f-i-abdomen,#f-f-i-pelvis,#f-f-i-leg,#f-f-i-hand,
      #m-f-i-head,#f-f-i-neck,#m-f-i-chest,#m-f-i-abdomen,#m-f-i-pelvis,#m-f-i-leg,#m-f-i-hand,
      #f-b-i-head,#f-b-i-neck,#f-b-i-back,#f-b-i-buttock,#f-b-i-leg,#f-b-i-hand,
      #m-b-i-head,#m-b-i-neck,#m-b-i-back,#m-b-i-buttock,#m-b-i-leg,#m-b-i-hand
      {
        display: none;
      }
    </style>
  </defs>

<g id="outer">
  <g class="male">
    <g class="male_front">
      <path id="m-f-head" data-name="head" class="cls-1 head" d="M197.5-1c23.194,0,30.537,18.929,31.409,43.242,0.062,1.727,5.551-9,5.091,5.258s-6.093,12.347-7.92,17.844C220.182,83.093,206.632,95.473,197.5,96c-9.676.558-23.311-11-28.549-30.757C167.713,60.575,163.07,60.612,161,47.5s5.038-4.018,5.119-5.976C167.11,17.558,174.535-1,197.5-1Z"/>
      <path id="m-f-neck" data-name="neck" class="cls-1 neck" d="M175,79s11.846,18,23.644,18C210.346,97,224,75,224,75s-5.024,18,.3,26.568C230.42,111.415,246,117,246,117s-23.343,13-45.384,13C179.165,130,155,117,155,117s13.557-4.649,17.952-13.957C177.046,94.373,175,79,175,79Z"/>
      <path id="m-f-chest" data-name="chest" class="cls-1 chest" d="M154,116s22.694,14,45.661,14C223.187,130,247,116,247,116s1.656,16.908,5.067,34.092c1.184,5.962,5.217,9.318,5.854,15.625,1.294,12.816,3.02,27.439,2.445,36.7C259.819,211.23,257,215,257,215s-28.193-5-56.661-5C171.312,210,142,215,142,215s-4.708-5.146-5.837-15.6c-0.981-9.091,1.477-22.682,2.879-34.248,0.854-7.049,5.445-11.09,7.28-17.549C150.9,131.493,154,116,154,116Z"/>
      <path id="m-f-abdomen" data-name="abdomen" class="cls-1 abdomen" d="M142,215s30.326-6,59.695-6c27.574,0,54.305,6,54.305,6s-0.328,7.489-1.615,16.982C253.174,240.91,251,251.5,251,262.839A203.99,203.99,0,0,0,256,305s-26.441,14-53.966,14C172.156,319,141,305,141,305s5.257-23.11,5.51-45.909C146.757,236.9,142,215,142,215Z"/>
      <path id="m-f-pelvis" data-name="pelvis" class="cls-1 pelvis" d="M140,304s28.9,15,57.966,15C227.393,319,257,304,257,304l8,26s-57.763,28.4-57.471,51.585c-4.81-.037-7.7-0.075-12.571-0.112C196.82,360.211,136,329,136,329Z"/>
      <path id="m-f-leg" data-name="leg" class="cls-1 leg" d="M135.885,327.945S152.973,338.669,170,349c24.933,17.146,26.364,32.873,26.364,32.873s-1.359,34.016-2.367,44.265c-7.709,36.413-4.824,43.587-5.731,68.583-12.053,35.295-3.544,44.25-4.709,67.784-1.01,17.838-5.206,9.421-6.984,52.578-1.123,20.494,3.061,19.156,2.189,34.459-0.672,11.8-2.031,18.595-2.51,25.7-0.549,8.142-3.957,17.741-3.957,17.741s-5.757,4.257-19.612,2.808c-10.986-6.8-8.439-3.709-13.217-7.8-3.839-3.285-1.829-8.484-.255-11.83,3.739-3.936,5.537,1.029,10.686-16.513,3.17-10.8,1.283-12.985,2.6-31.877,2.015-28.958-13.852-61.612-12.931-91.491,0.312-10.133,6.948-26.026,6.391-35.465-0.714-12.093-2.224-35.438-4.742-45.582-10.1-31.034-10.88-53.363-10.192-75.733,0.373-12.1-.482,21.745-0.1,11.874C132.014,363.572,135.885,327.945,135.885,327.945Zm128.23,1S249.027,338.669,232,349s-26.365,32.873-26.365,32.873S207,415.889,208,426.138c7.709,36.413,4.824,43.587,5.731,68.583,12.053,35.295,3.543,44.25,4.709,67.784,1.01,17.838,5.206,9.421,6.984,52.578,1.123,20.494-3.061,19.156-2.189,34.459,0.671,11.8,2.031,18.595,2.51,25.7,0.549,8.142,3.957,17.741,3.957,17.741s5.757,4.257,19.612,2.808c10.986-6.8,8.439-3.709,13.217-7.8,3.839-3.285,1.829-8.484.254-11.83-3.738-3.936-5.537,1.029-10.685-16.513-3.17-10.8-5.283-9.985-6.6-28.877,6.96-31.053,15.852-64.612,14.931-94.491-0.312-10.133-4.948-26.026-4.391-35.465,0.714-12.093,2.224-35.438,4.742-45.582,10.1-31.034,8.88-53.363,8.191-75.733-0.372-12.1.483,21.745,0.1,11.874C267.986,363.572,264.115,328.945,264.115,328.945Z"/>
      <path id="m-f-hand" data-name="hand" class="cls-1 hand" d="M111.489,141.042s5.538-11.142,12.983-15.586c7.852-4.686,29.4-8.827,29.4-8.827s-2.16,9.071-4.225,20.458c-0.781,4.305-5.151,12.85-7.883,18.312s-0.219,17.439-2.951,28.362-1.332,18.355-3.161,27.433c-9.6,26.57-12.916,32.723-15.353,55.5-4.562,12.462-30.636,58.431-39.208,76.876-1.141,4.605.353,16.543-2.041,31.122,0.543-2.039-13.9,37.169-13.2,37.432-1.081-.407-2.81,1.274-3.5-0.042-2.089-3.994,6.184-22.666,3.156-22.2-1.768.27-6.633,14.472-9.193,22.508-1.173,3.681-3.552,5.185-4.252,5.031-0.5-.111-1.157-2.09-1.624-2.249-1.187-.406,6.562-24.916,5.333-24.708-1.593.269-10.015,28.55-11.292,28.728-1,.14-1.2.806-1.927,0.871-1.462.132-1.378-2.975-1.378-2.975s3.074-12,5.525-19.721c1.683-5.3,3.427-9.338,2.261-9.271-1.451.083-5.966,16.064-8.829,22.641-1.853,4.257-4.567,3.748-4.923,2.74a12.852,12.852,0,0,1-.643-3.537c-0.191-3.33,8.546-21.482,8.172-24.815-0.246-2.191-3.126,2.4-3.037-.1,0.036-1.018-1.9-2.062-1.793-3.132,0.219-2.278,1.213-6.785,3.6-9.86,2.583-3.324,3.29-6.113,6.339-11.424,3.91-6.811.075-5.561,10.009-14.47,7.973-7.15,7.652-22.154,16.452-54.915,4.87-18.131,3.3-17.993,7.853-34.681s12.3-27.918,15.592-43.3c2.291-10.695,7.689-21.311,9.422-30.3,2.181-11.322.958-19.372,0.7-26.512A34.089,34.089,0,0,1,111.489,141.042Zm175.022,0s-5.538-11.142-12.983-15.586c-7.852-4.686-29.4-8.827-29.4-8.827s2.161,9.071,4.226,20.458c0.781,4.305,5.151,12.85,7.883,18.312s0.219,17.439,2.951,28.362,1.332,18.355,3.161,27.433c9.6,26.57,12.916,32.723,15.353,55.5,4.562,12.462,30.636,58.431,39.208,76.876,1.141,4.605-.354,16.543,2.041,31.122-0.544-2.039,13.9,37.169,13.2,37.432,1.081-.407,2.81,1.274,3.5-0.042,2.09-3.994-6.184-22.666-3.155-22.2,1.768,0.27,6.633,14.472,9.192,22.508,1.173,3.681,3.552,5.185,4.252,5.031,0.5-.111,1.158-2.09,1.624-2.249,1.187-.406-6.562-24.916-5.333-24.708,1.593,0.269,10.015,28.55,11.292,28.728,1,0.14,1.2.806,1.927,0.871,1.462,0.132,1.378-2.975,1.378-2.975s-3.074-12-5.526-19.721c-1.683-5.3-3.427-9.338-2.261-9.271,1.451,0.083,5.966,16.064,8.829,22.641,1.853,4.257,4.567,3.748,4.923,2.74a12.859,12.859,0,0,0,.643-3.537c0.191-3.33-8.547-21.482-8.173-24.815,0.246-2.191,3.127,2.4,3.038-.1-0.037-1.018,1.9-2.062,1.793-3.132-0.219-2.278-1.214-6.785-3.6-9.86-2.583-3.324-3.29-6.113-6.339-11.424-3.91-6.811-.075-5.561-10.009-14.47-7.973-7.15-7.652-22.154-16.452-54.915-4.87-18.131-3.3-17.993-7.853-34.681s-12.3-27.918-15.592-43.3c-2.291-10.695-7.69-21.311-9.422-30.3-2.181-11.322-.958-19.372-0.7-26.512A34.089,34.089,0,0,0,286.511,141.042Z"/>
    </g>
    <g class="male_back">
      <path id="m-b-head" data-name="head" class="cls-1 head" d="M605.309,6c21.7,0,30.9,19.831,30.9,43.532,0,1.944,3.011-2.3,4.89,1.583,1.257,6.443-5.249,18.5-7.379,18.829-0.579,1.816-1.293,3.195-2.173,5.469-6.33,10-17.794,15.121-25.623,15.121s-20.438-4.718-26.776-15.8c-0.741-1.9-1.912-5.356-1.912-5.356S569.479,66,569.5,51.782c2.6-4.775,4.909-1.264,4.909-2.251C574.406,25.831,583.608,6,605.309,6Z"/>
      <path id="m-b-neck" data-name="neck" class="cls-1 neck" d="M582.441,78.1s11.1,10.437,23.232,10.437c11.751,0,22.7-10.437,22.7-10.437s-4.926,17.392,1.423,29.278c3.3,6.171,20.632,10.858,20.632,10.858s-22.245,12.349-44.7,12.349c-22.874,0-45.962-12.349-45.962-12.349s17.3-4.616,20.558-10.718C586.676,95.626,582.441,78.1,582.441,78.1Z"/>
      <path id="m-b-buttock" data-name="buttock" class="cls-1 butt" d="M544.357,307.125s30.353,1.672,60.594,1.672c30.019,0,59.928-1.672,59.928-1.672s7.756,50.34,6.472,58.82-12.524,24.319-31.079,25.163c-8.424.383-27.366-5.214-30.567-7.3s-4.593-1.942-9.882.006-21.4,7.735-30.964,7.3c-22.984-1.055-30.433-18.2-31.974-26.163S544.357,307.125,544.357,307.125Z"/>
      <path id="m-b-back" data-name="back" class="cls-1 back" d="M557.337,118c0.983-.328,24.659,12.967,48.71,12.967,22.893,0,43.842-13.622,45.234-12.967-0.819,8.841,8.078,21.549,11.734,31.115,4.376,11.45,2.215,38.293,3.982,65.26-10.295,26.38-10.514,35.012-11.29,43.941s8.755,47.54,8.755,47.54-33.022,4.59-59.241,4.59c-26.622,0-60.447-3.59-60.447-3.59s7.38-34.652,8.35-46.493-19.436-57.022-12.245-96.058c-0.094-8.8,3.847-14.724,5.585-21.5C548.877,133.392,556.763,125.284,557.337,118Z"/>
      <path id="m-b-leg" data-name="leg" class="cls-1 leg" d="M536.885,366.945s11.472,21.347,27.074,22.453c15.725,0.123,37.406-6.525,37.406-6.525s-0.8,11.413-.854,27.142c-0.047,13.379-8.312,27.331-9.514,48.123-2.79,48.27-8.594,54.178-9.731,71.583,2.117,22.009,4.456,28.25,3.291,51.784-1.01,17.838-9.406,37.443-6.984,53.578,1.178,7.842,3.14,12.578,3.189,15.459,0.2,11.813-.031,20.595-0.51,27.7-0.549,8.142-2.957,12.741-2.957,12.741s-9.071,6.1-17.612.808c-10.986-6.8-8.439-9.709-13.217-13.8a8.646,8.646,0,0,1-2.255-10.83c3.739-3.936,5.537,1.029,10.686-16.513,3.17-10.8,1.35-14.314-2.4-32.877-5.576-27.578-13.852-37.612-12.931-67.491,0.312-10.133,3.948-20.026,3.391-29.465-0.714-12.093,2.776-23.438.258-33.582-2.739-40-7.88-51.363-7.191-73.733,0.372-12.1-.483,21.745-0.1,11.874C537.014,397.572,536.885,366.945,536.885,366.945Zm133.23,0s-11.473,21.347-27.074,22.453c-15.725.123-37.406-6.525-37.406-6.525a197.626,197.626,0,0,1,1.854,27.142c0.047,13.379,5.5,31,6.514,50.123,2.408,45.368,8.594,52.178,9.731,69.583-2.117,22.009-2.457,28.25-1.291,51.784,1.01,17.838,9.406,37.443,6.984,53.578-1.178,7.842-3.141,12.578-3.189,15.459-0.2,11.813.031,20.595,0.51,27.7,0.549,8.142,2.957,12.741,2.957,12.741s9.07,6.1,17.612.808c10.986-6.8,8.439-9.709,13.217-13.8,3.839-3.285,2.829-7.484,1.254-10.83-3.738-3.936-8.345,7.646-10.685-15.513-1.132-11.2-.35-15.314,3.4-33.877,5.576-27.578,11.852-35.612,10.931-65.491-0.312-10.133-7.948-22.026-7.391-31.465,0.714-12.093-1.776-23.438.741-33.582,2.74-40,9.881-51.363,9.192-73.733-0.372-12.1.483,21.745,0.1,11.874C666.986,397.572,670.115,366.945,670.115,366.945Z"/>
      <path id="m-b-hand" data-name="hand" class="cls-1 hand" d="M517.074,144.845s4.742-12.064,12.261-16.381c7.93-4.553,27.51-9.549,27.51-9.549s-3,9.042-9.571,23.434a84.571,84.571,0,0,0-5.141,20.261c-0.745,8.884-1.613,14.1-.43,23.376s1.34,19.413-.642,28.459c-16.385,39.33-13.516,42.784-18.288,55.168s-42.269,67.625-36.45,83.135c-0.777,2.923-3.706,18.849-3.706,18.849s-8.176,33.17-12.424,31.491c-1.074-.425-1.832,1.242-2.5-0.084-2.022-4.029,5.566-19.609,2.53-19.2-1.772.239-3.877,14.408-6.572,22.4-1.234,3.661-3.639,5.124-4.336,4.959-0.5-.12-1.122-2.109-1.586-2.277-1.18-.425,6.983-24.8,5.75-24.614-1.6.242-10.462,26.377-11.742,26.534-1,.123-1.216.785-1.941,0.838-1.464.108-1.327-3-1.327-3s3.242-9.951,5.824-17.625c1.772-5.269,3.583-9.162,2.417-9.231-1.253-.075-4.6,12.855-8.628,20.087-2.259,4.057-4.195,4.054-4.534,3.041a6.332,6.332,0,0,1-.583-2.547c-0.134-3.333,7.111-23.266,6.793-26.6-0.209-2.2-1.266,6.161-1.135,3.663,0.053-1.018-2.861-3.061-2.74-4.128,0.257-2.274,3.14-8.187,4.719-11.748,3.436-7.751,5.613-15.275,13.63-22.565,3.475-3.159,8.278-15.161,9.093-18.591,2.192-9.221,3.959-21.611,6.047-27.989,5.841-17.842,2.7-21.6,8.438-39.459,2.96-9.218,10.766-23.74,14.321-39.068,2.472-10.655,7.05-21.246,8.934-30.208a107.411,107.411,0,0,0,2.148-26.479A28.183,28.183,0,0,1,517.074,144.845Zm172.852,0s-4.742-12.064-12.261-16.381c-7.93-4.553-27.511-9.549-27.511-9.549s3,9.042,9.572,23.434a84.571,84.571,0,0,1,5.141,20.261c0.745,8.884,1.613,14.1.43,23.376s-1.341,19.413.642,28.459c16.385,39.33,13.516,42.784,18.288,55.168s42.269,67.625,36.45,83.135c0.776,2.923,3.706,18.849,3.706,18.849s8.176,33.17,12.424,31.491c1.074-.425,1.831,1.242,2.5-0.084,2.022-4.029-5.566-19.609-2.531-19.2,1.773,0.239,3.878,14.408,6.573,22.4,1.234,3.661,3.639,5.124,4.336,4.959,0.5-.12,1.122-2.109,1.586-2.277,1.18-.425-6.983-24.8-5.75-24.614,1.6,0.242,10.462,26.377,11.742,26.534,1,0.123,1.216.785,1.941,0.838,1.464,0.108,1.327-3,1.327-3s-3.242-9.951-5.824-17.625c-1.772-5.269-3.583-9.162-2.417-9.231,1.253-.075,4.6,12.855,8.628,20.087,2.258,4.057,4.2,4.054,4.534,3.041a6.332,6.332,0,0,0,.583-2.547c0.134-3.333-7.111-23.266-6.793-26.6,0.209-2.2,1.266,6.161,1.135,3.663-0.053-1.018,2.861-3.061,2.74-4.128-0.257-2.274-3.14-8.187-4.719-11.748-3.437-7.751-5.613-15.275-13.63-22.565-3.475-3.159-8.278-15.161-9.093-18.591-2.192-9.221-3.96-21.611-6.047-27.989-5.841-17.842-2.7-21.6-8.438-39.459-2.96-9.218-10.766-23.74-14.321-39.068-2.472-10.655-7.05-21.246-8.934-30.208a107.411,107.411,0,0,1-2.148-26.479A28.183,28.183,0,0,0,689.926,144.845Z"/>
    </g>
  </g>
  <g class="female">
    <g class="female_front">
      <path id="f-f-head" data-name="head" class="cls-1 head" d="M1000.31,0c21.7,0,30.9,19.831,30.9,43.532,0,1.944,3.01-2.3,4.89,1.583,1.26,6.443-5.25,18.5-7.38,18.829-0.58,1.816-1.29,3.195-2.17,5.469-6.33,10-17.79,22.121-25.62,22.121s-20.441-11.718-26.779-22.8c-0.741-1.9-1.912-5.355-1.912-5.355S964.479,60,964.5,45.782c2.6-4.775,4.909-1.264,4.909-2.251C969.406,19.831,978.608,0,1000.31,0Z"/>
      <path id="f-f-neck" data-name="neck" class="cls-1 neck" d="M977.441,74.1s11.1,16.437,23.229,16.437c11.75,0,23.7-17.437,23.7-17.437s-5.92,20.392.42,32.278c3.3,6.171,20.64,9.858,20.64,9.858s-22.25,11.349-44.7,11.349c-22.874,0-46.962-11.349-46.962-11.349s19.3-3.616,22.557-9.718C982.676,93.626,977.441,74.1,977.441,74.1Z"/>
      <path id="f-f-chest" data-name="chest" class="cls-1 chest" d="M953.337,115c0.983-.328,24.659,10.967,48.713,10.967,22.89,0,43.84-11.622,45.23-10.967-0.82,8.841.2,7.194,2.73,17.115,1.7,6.628,5.16,12.83,4.99,21.26,3.67,43.4-1.54,55.481-1.54,55.481s-26.02-8.41-52.24-8.41c-26.621,0-53.446,8.41-53.446,8.41s-4.513-3.378-2.895-55.551c-0.094-8.8,3.847-14.724,5.585-21.5C952.877,122.392,952.763,122.284,953.337,115Z"/>
      <path id="f-f-abdomen" data-name="abdomen" class="cls-1 abdomen" d="M947.336,207c0.984-.328,30.66-7.033,54.714-7.033,22.89,0,49.84,6.378,51.23,7.033-0.67,7.291-3.04,18.144-3.28,30.375,6.11,32.64,10.46,51.481,10.46,51.481s-33.02,16.59-59.24,16.59c-26.621,0-60.446-15.59-60.446-15.59s2.817-17.725,9.105-46.551C949.746,230.87,946.862,213.024,947.336,207Z"/>
      <path id="f-f-pelvis" data-name="pelvis" class="cls-1 pelvis" d="M940.357,289.125S970.71,304.8,1000.95,304.8c30.02,0,59.93-15.672,59.93-15.672l2.47,13.82s-4.52,5.343-28.08,20.163c-23.55,17.5-27.64,25.765-29.56,29.7-3.21-2.087-4.6-1.942-9.887.006-7.726-11.45-11.861-17.491-31.964-31.7-18.883-12.993-26.974-18.163-26.974-18.163Z"/>
      <path id="f-f-leg" data-name="leg" class="cls-1 leg" d="M936.885,302.945s10.53,5.6,29.074,18.453a115.521,115.521,0,0,1,29.405,30.475,244.314,244.314,0,0,1,1.147,26.142c-0.047,13.379-2.475,27.4-4.514,48.123-2.1,21.356-3.824,45.587-4.731,70.583,2.117,22.009,5.457,31.25,4.291,54.784-1.01,17.838-5.091,35.287-5.984,51.578-1.123,20.494,1.061,26.156.189,41.459-0.671,11.8-.031,32.595-0.51,39.7-0.549,8.142-3.957,12.741-3.957,12.741s-10.223,3-17.612,2.808-14.439,1.291-19.217-2.8c-3.839-3.285-3.829-9.484-2.255-12.83,3.739-3.936,11.537-18.971,16.686-36.513,3.17-10.8.283-13.985,1.6-32.877,2.015-28.958-12.852-66.612-11.931-96.491,0.312-10.133,3.948-20.026,3.391-29.465a186.363,186.363,0,0,0-4.742-33.582c-10.1-31.034-17.88-52.363-17.192-74.733,0.373-12.1-.482,21.745-0.1,11.874C927.761,346.356,936.885,302.945,936.885,302.945Zm126.465,0s-9.9,6.6-28.93,19.453a99.9,99.9,0,0,0-28.55,29.475,245.7,245.7,0,0,0-1.15,26.142c0.05,13.379,2.48,27.4,4.52,48.123,2.1,21.356,3.82,45.587,4.73,70.583-2.12,22.009-5.46,31.25-4.29,54.784,1.01,17.838,5.09,35.287,5.98,51.578,1.13,20.494.94,39.156,1.81,54.459,0.68,11.8-.96,17.595-0.49,24.7a59.579,59.579,0,0,0,2.96,14.741c0.03-.011,2.49,3.537,19.55,2.78,9.66-.569,14.15.756,18.28-3.77s2.04-11.059,1.25-12.83c-5.9-5.9-8.53-13.971-13.68-31.513-3.17-10.8-4.13-17.946-3.6-36.877,1.01-36.215,6.19-33.747,10.93-96.491-0.53-10.123-3.95-20.026-3.39-29.465a185.835,185.835,0,0,1,4.74-33.582c10.1-31.034,14.43-50.984,17.19-77.82S1063.35,302.945,1063.35,302.945Z"/>
      <path id="f-f-hand" data-name="hand" class="cls-1 hand" d="M921.961,134.757s7.614-11.684,15.43-15.438A48.724,48.724,0,0,1,954.337,115a156.594,156.594,0,0,1-4.065,18.264c-1.166,4.216-3.352,9.309-4.252,14.99a140.227,140.227,0,0,0-1.512,28.341c0.5,9.333.909,19.606-1.732,28.482-11.956,25.6-17.61,41.532-23.277,53.532s-21.492,46.083-31.692,63.68c-1.551,4.484.457,6.046-3.392,14.787-3.888,11.031-6.482,14.416-6.482,14.416s-2.944,24.02-7.057,22.033c-1.04-.5-1.918,1.106-2.485-0.267-1.721-4.166,5.214-22.286,2.157-22.1-1.785.109-4.923,14.085-8.2,21.858-1.5,3.56-4,4.843-4.688,4.627-0.491-.156-0.964-2.186-1.415-2.386-1.145-.511,8.782-24.223,7.539-24.127-1.61.124-12.368,25.539-13.655,25.6-1,.049-1.271.693-2,0.693-1.467,0-1.1-3.087-1.1-3.087s3.964-9.687,7.1-17.151c2.154-5.124,4.245-8.875,3.087-9.029-1.244-.166-7.525,12.337-12.072,19.255-2.549,3.879-4.554,4.732-4.817,3.7a12.853,12.853,0,0,1-.322-3.58c0.11-3.334,12.514-21.215,12.442-24.568-0.047-2.205-8.826,2.093-8.512-.389q0.192-1.517.488-3.1c0.423-2.249,4.538-3.39,7.2-6.238,2.872-3.077,3.012-9.306,8.154-12.633s1.32,1.987,9.638-8.447,7.288-11.372,10.787-22.568,4.316-17.831,11.2-42.809c9.981-15.878,12.771-27.876,17.44-42.9,3.246-10.445,4.6-20.891,7.132-29.692,3.193-11.079,2.7-18.116,3.084-25.25A48.64,48.64,0,0,1,921.961,134.757Zm157.079-1s-5.61-9.684-13.43-13.438c-8.24-3.959-18.95-5.321-18.95-5.321s-0.02,7.109,3.07,18.264c1.16,4.216,3.35,9.309,4.25,14.99,1.39,8.8,1.01,19.008.51,28.341a87.285,87.285,0,0,0,3.73,28.482c11.96,25.6,16.61,43.532,22.28,55.532s19.23,32.55,32.69,61.68c1.55,4.484-1.42,7.41,4.39,14.787,3.89,11.031,5.49,14.416,5.49,14.416s2.94,24.02,7.05,22.033c1.04-.5,1.92,1.106,2.49-0.267,1.72-4.166-5.22-22.286-2.16-22.1,1.79,0.109,4.93,14.085,8.2,21.858,1.5,3.56,4,4.843,4.69,4.627,0.49-.156.96-2.186,1.41-2.386,1.15-.511-8.78-24.223-7.54-24.127,1.61,0.124,12.37,25.539,13.66,25.6,1,0.049,1.27.693,2,.693,1.46,0,1.1-3.087,1.1-3.087s-3.96-9.687-7.1-17.151c-2.15-5.124-4.25-8.875-3.09-9.029,1.25-.166,7.53,12.337,12.07,19.255,2.55,3.879,4.56,4.732,4.82,3.7a12.674,12.674,0,0,0,.32-3.58c-0.11-3.334-15.51-26.215-15.44-29.568,0.05-2.205,11.83,8.093,11.51,5.611-0.12-1.011-.29-2.044-0.49-3.1-0.42-2.249-3.53-4.39-6.19-7.238-2.87-3.077-2.67-6.566-7.16-11.633-5.14-3.327-3.32.987-11.63-9.447s-7.78-9.948-12.79-22.568-4.67-19.341-12.2-43.809c-9.98-15.878-12.77-26.876-17.44-41.9-3.25-10.445-5.12-17.845-6.13-29.692-1.24-11.949-.7-19.116-1.09-26.25A48.8,48.8,0,0,0,1079.04,133.757Z"/>
    </g>
    <g class="female_back">
      <path id="f-b-head" data-name="head" class="cls-1 head" d="M1400.31,0c21.7,0,30.9,19.831,30.9,43.532,0,1.944,3.01-2.3,4.89,1.583,1.26,6.443-5.25,18.5-7.38,18.829-0.58,1.816-1.29,3.195-2.17,5.469-6.33,10-17.79,15.121-25.62,15.121s-20.44-4.718-26.78-15.8c-0.74-1.9-1.91-5.355-1.91-5.355s-7.76-3.377-7.74-17.595c2.6-4.775,4.91-1.264,4.91-2.251C1369.41,19.831,1378.61,0,1400.31,0Z"/>
      <path id="f-b-neck" data-name="neck" class="cls-1 neck" d="M1377.44,74.1s11.1,10.437,23.23,10.437c11.75,0,22.7-10.437,22.7-10.437s-4.92,17.392,1.42,29.278c3.3,6.171,20.64,10.858,20.64,10.858s-22.25,12.349-44.7,12.349c-22.87,0-45.96-12.349-45.96-12.349s17.3-4.616,20.56-10.718C1381.68,91.626,1377.44,74.1,1377.44,74.1Z"/>
      <path id="f-b-buttock" data-name="buttock" class="cls-1 butt" d="M1340.36,289.125s30.35,1.672,60.59,1.672c30.02,0,59.93-1.672,59.93-1.672l9.47,50.82s-15.52,19.319-34.08,20.163c-8.42.383-27.36-5.214-30.56-7.3s-4.6-1.942-9.89.006-21.4,7.735-30.96,7.3c-22.98-1.055-34.97-22.163-34.97-22.163Z"/>
      <path id="f-b-back" data-name="back" class="cls-1 back" d="M1353.34,113c0.98-.328,24.66,12.967,48.71,12.967,22.89,0,43.84-13.622,45.23-12.967-0.82,8.841.2,9.194,2.73,19.115,1.7,6.628,6.16,12.83,5.99,21.26,13.81,19.147-6.52,77.012-7.29,85.941s11.75,48.54,11.75,48.54-33.02,4.59-59.24,4.59c-26.62,0-60.45-4.59-60.45-4.59s10.38-34.652,11.35-46.493-14.43-49.022-7.24-88.058c-0.1-8.8,3.85-14.724,5.58-21.5C1352.88,122.392,1352.76,120.284,1353.34,113Z"/>
      <path id="f-b-leg" data-name="leg" class="cls-1 leg" d="M1329.89,336.945s10.62,20.107,30.07,21.453c15.72,0.123,35.4-5.525,35.4-5.525a211.974,211.974,0,0,1,1.15,25.142c-0.05,13.379-2.47,27.4-4.51,48.123-2.1,21.356-3.83,45.587-4.73,70.583,2.11,22.009,5.45,31.25,4.29,54.784-1.01,17.838-5.09,35.287-5.99,51.578-1.12,20.494,1.06,26.156.19,41.459-0.67,11.8-.03,23.595-0.51,30.7-0.55,8.142-3.95,12.741-3.95,12.741s-9.08,6.1-17.62.808c-10.98-6.8-8.44-9.709-13.21-13.8a8.651,8.651,0,0,1-2.26-10.83c3.74-3.936,5.54,1.029,10.69-16.513,3.17-10.8.28-13.985,1.59-32.877,2.02-28.958-12.85-66.612-11.93-96.491,0.32-10.133,3.95-20.026,3.4-29.465a186.7,186.7,0,0,0-4.75-33.582C1331.7,407.578,1329.89,336.945,1329.89,336.945Zm140.46,3s-17.01,22.876-42.93,18.453-21.55-5.525-21.55-5.525a214.72,214.72,0,0,0-1.15,25.142c0.05,13.379,2.48,27.4,4.52,48.123,2.1,21.356,3.82,45.587,4.73,70.583-2.12,22.009-5.46,31.25-4.29,54.784,1.01,17.838,5.09,35.287,5.98,51.578,1.13,20.494.94,39.156,1.81,54.459,0.68,11.8-.96,8.595-0.49,15.7,0.55,8.142,3.96,12.741,3.96,12.741,0.03-.011,12.46,6.519,19.55,2.78s9.15-13.243,13.28-17.77-0.96-7.059-1.75-8.83c-5.9-5.9-1.53,7.029-6.68-10.513-3.17-10.8-4.13-17.946-3.6-36.877,1.01-36.215,13.97-39.1,10.93-96.491-0.53-10.123-3.95-20.026-3.39-29.465a185.835,185.835,0,0,1,4.74-33.582c10.1-31.034,14.57-48.816,17.19-77.82C1472.02,403.533,1470.35,339.945,1470.35,339.945Z"/>
      <path id="f-b-hand" data-name="hand" class="cls-1 hand" d="M1322.96,133.757s5.61-11.684,13.43-15.438A68.96,68.96,0,0,1,1353.34,113a83.635,83.635,0,0,1-3.07,20.264c-1.16,4.216-3.35,9.309-4.25,14.99a140.519,140.519,0,0,0-1.51,28.341c0.5,9.333,1.91,19.606-.73,28.482-11.96,25.6-18.61,41.532-24.28,53.532s-39.49,52.083-49.69,69.681c-1.55,4.483-4.46,5.016-4.39,14.786-3.89,11.031-5.49,14.416-5.49,14.416s-2.94,24.02-7.05,22.033c-1.04-.5-1.92,1.106-2.49-0.266-1.72-4.167,5.22-22.287,2.16-22.1-1.79.109-4.93,14.085-8.2,21.858-1.5,3.56-4,4.843-4.69,4.627-0.49-.156-0.96-2.186-1.41-2.386-1.15-.511,8.78-24.223,7.54-24.127-1.61.124-12.37,25.539-13.66,25.6-1,.049-1.27.693-2,0.693-1.46,0-1.1-3.087-1.1-3.087s3.96-9.687,7.1-17.151c2.15-5.124,4.25-8.875,3.09-9.029-1.25-.166-7.53,12.337-12.07,19.255-2.55,3.879-4.56,4.732-4.82,3.7a12.674,12.674,0,0,1-.32-3.58c0.11-3.334,15.51-32.215,15.44-35.568-0.05-2.205-14.83,7.093-14.51,4.611,0.12-1.011.29-2.044,0.49-3.1,0.42-2.249,4.53-3.39,7.19-6.238,2.87-3.077,4.01-5.306,9.16-8.633s3.32,3.987,11.63-6.447,12.92-19.58,14.79-22.568c2.49-3.981-.87-0.031,8.27-16.427s5.95-17.5,15.93-33.382,12.77-26.876,17.44-41.9c3.25-10.445,5.6-20.891,8.13-29.692a107.256,107.256,0,0,0,4.09-26.25A48.8,48.8,0,0,1,1322.96,133.757Zm156.08,0s-5.61-11.684-13.43-15.438c-8.24-3.959-18.95-5.321-18.95-5.321a83.635,83.635,0,0,0,3.07,20.264c1.16,4.216,3.35,9.309,4.25,14.99,1.39,8.8,6.01,19.008,5.51,28.341s-3.91,19.606-1.27,28.482c11.96,25.6,18.61,41.532,24.28,53.532s39.49,52.083,49.69,69.681c1.55,4.483,4.46,5.016,4.39,14.786,3.89,11.031,5.49,14.416,5.49,14.416s2.94,24.02,7.05,22.033c1.04-.5,1.92,1.106,2.49-0.266,1.72-4.167-5.22-22.287-2.16-22.1,1.79,0.109,4.93,14.085,8.2,21.858,1.5,3.56,4,4.843,4.69,4.627,0.49-.156.96-2.186,1.41-2.386,1.15-.511-8.78-24.223-7.54-24.127,1.61,0.124,12.37,25.539,13.66,25.6,1,0.049,1.27.693,2,.693,1.46,0,1.1-3.087,1.1-3.087s-3.96-9.687-7.1-17.151c-2.16-5.124-4.25-8.875-3.09-9.029,1.25-.166,7.53,12.337,12.07,19.255,2.55,3.879,4.56,4.732,4.82,3.7a12.674,12.674,0,0,0,.32-3.58c-0.11-3.334-15.51-32.215-15.44-35.568,0.05-2.205,14.83,7.093,14.51,4.611-0.12-1.011-.29-2.044-0.49-3.1-0.42-2.249-4.53-3.39-7.19-6.238-2.87-3.077-4.01-5.306-9.16-8.633s-3.32,3.987-11.63-6.447-12.92-19.58-14.79-22.568c-2.49-3.981.87-.031-8.27-16.427s-5.95-17.5-15.93-33.382-12.77-26.876-17.44-41.9c-3.25-10.445-5.6-20.891-8.13-29.692a107.256,107.256,0,0,1-4.09-26.25A48.8,48.8,0,0,0,1479.04,133.757Z"/>
    </g>
  </g>
</g>

<!-- <g id="inner">
  <g class="male">
    <g class="male_front">
      <g id="m-f-i-head">
        <path id="m-f-i-scalp" class="cls-1" d="M197.5-1C220.864-1,228,18.222,228,37c0,0.3-13.655-8-30.5-8S167,37.088,167,37C167,18.222,174.136-1,197.5-1Z"/>
        <path id="m-f-i-eye" class="cls-1" d="M183.344,40c5.714,0,10.345,2.462,10.345,5.5S189.058,51,183.344,51,173,48.538,173,45.5,177.631,40,183.344,40Zm28.312,0C217.369,40,222,42.462,222,45.5S217.369,51,211.656,51s-10.345-2.462-10.345-5.5S205.942,40,211.656,40Z"/>
        <path id="m-f-i-nose" class="cls-1" d="M197.5,42c2.124,0,5.5,5.82,5.5,13s0.872,12-5.5,12S192,62.18,192,55,195.376,42,197.5,42Z"/>
        <ellipse id="m-f-i-mouth" class="cls-1" cx="197.5" cy="77.5" rx="14.5" ry="6.5"/>
        <path id="m-f-i-jaw" class="cls-1" d="M198,84c5.168,0,9.811,2.761,13.731,0,4.6-3.247,9.21-13.47,11.493-16.492,1.8-2.379,1.776.606,1.776,3,0,8.008-10.984,25.5-27,25.5s-27-17.492-27-25.5c0-2.614,1.171-5.181,3.305-1.459,1.96,3.42,5.734,11.928,9.16,14.612C187.734,87,192.016,84,198,84Z"/>
        <path id="m-f-i-cheek" class="cls-1" d="M173,50a30.169,30.169,0,0,0,10.088,2A34.6,34.6,0,0,0,191,51a25.457,25.457,0,0,0-1.443,8.915C189.787,63.588,190,67,190,67s-6.177.124-10-2S173,50,173,50Zm49,0a30.169,30.169,0,0,1-10.088,2A34.6,34.6,0,0,1,204,51a25.457,25.457,0,0,1,1.443,8.915C205.213,63.588,205,67,205,67s6.177,0.124,10-2S222,50,222,50Z"/>
        <path id="m-f-i-ear" class="cls-1" d="M231.594,40.1c4.131,0.413,3.256,6.267,2.376,13.392s-3.085,11.792-5.564,12.411-2.256-5.267-1.376-12.392S229.321,39.685,231.594,40.1Zm-66.188,0c-4.131.413-3.256,6.267-2.376,13.392s3.085,11.792,5.564,12.411,2.256-5.267,1.376-12.392S167.679,39.685,165.406,40.1Z"/>
      </g>
      <path id="m-f-i-neck" class="cls-1" d="M175,79s11.846,18,23.644,18C210.346,97,224,75,224,75s-5.024,18,.3,26.568C230.42,111.415,246,117,246,117s-23.343,13-45.384,13C179.165,130,155,117,155,117s13.557-4.649,17.952-13.957C177.046,94.373,175,79,175,79Z"/>
      <g id="m-f-i-chest">
        <path id="m-f-i-pectoral" class="cls-1" d="M151,133s40.984,2.276,44,6,3.144,48.635-2,63c-4.08,1.241-40,6.573-51-14C134.905,175.408,151,133,151,133Zm99,0s-40.984,2.276-44,6-3.144,48.635,2,63c4.08,1.241,40,6.573,51-14C266.1,175.408,250,133,250,133Z"/>
        <path id="m-f-i-sternum" class="cls-1" d="M194,139h12s-1,12.615-1,26.555c0,17.213,3,36.445,3,36.445s-5.183-2-8.271-2c-2.907,0-7.729,2-7.729,2s4-19.054,4-36.2A195.5,195.5,0,0,0,194,139Z"/>
        <path id="m-f-i-lateral_chest" class="cls-1" d="M139,185a37.5,37.5,0,0,0,16.943,14.251C178.8,204.665,194.8,199,200.451,199s26.638,6.158,40.956,1.345S257,185,257,185a52.462,52.462,0,0,1,3,15.808A41.063,41.063,0,0,1,257,215s-28.49-5.761-56.588-5.517C171.039,209.739,142,216,142,216a55.078,55.078,0,0,1-4.526-15.765A45.318,45.318,0,0,1,139,185Z"/>
      </g>
      <g id="m-f-i-abdomen">
        <path id="m-f-i-upper_abdomen" class="cls-1" d="M141,215s30.138-6,60.148-6c27.914,0,55.852,6,55.852,6s-4.239,22.927-5.338,43.258C250.786,274.452,253,284,253,284s-26.3,7-53.064,7c-27.72,0-55.936-6-55.936-6s3.382-11.239,2.707-27.886C145.9,237.077,141,215,141,215Z"/>
        <path id="m-f-i-lower_abdomen" class="cls-1" d="M145,285a337.043,337.043,0,0,0,54.256,5c27,0,52.744-6,52.744-6l3,15s-26.578,20-54.723,20C170.947,319,143,297,143,297Z"/>
      </g>
      <g id="m-f-i-pelvis">
        <path id="m-f-i-hip" class="cls-1" d="M142,299s10.6,5.322,14,14,4.147,33.812-3,43-21,12-21,12,0.741-18.91,3.352-36.931A306.13,306.13,0,0,1,142,299Zm114,0s-10.6,5.322-14,14-4.147,33.812,3,43,21,12,21,12-0.741-18.91-3.352-36.931A306.13,306.13,0,0,0,256,299Z"/>
        <path id="m-f-i-pelvis_inner" class="cls-1" d="M170,316s18.556,8,32.447,8c14.592,0,30.553-8,30.553-8s2.7,5.066,2.531,6.257C220.046,328.212,209,349,209,349H194s-8.392-19.841-25.748-26.647C167.742,321.162,170,316,170,316Z"/>
        <path id="m-f-i-genitals" class="cls-1" d="M187,355h28s-5.469,24.3-7,26-10.128,1.191-12,0S187,355,187,355Z"/>
        <path id="m-f-i-groin" class="cls-1" d="M183.58,354.953c9.3,12.822,14.664,24.794,11.981,26.739s-12.4-6.872-21.695-19.694S159.2,337.2,161.885,335.259,174.281,342.131,183.58,354.953Zm35.84,0c-9.3,12.822-14.664,24.794-11.981,26.739s12.4-6.872,21.695-19.694S243.8,337.2,241.115,335.259,228.719,342.131,219.42,354.953Z"/>
      </g>
      <g id="m-f-i-leg">
        <path id="m-f-i-thigh" class="cls-1" d="M135,338a336.764,336.764,0,0,1,33.637,21.339A261.238,261.238,0,0,1,196,383s-0.28,17.915-1.815,39.414c-0.634,8.876-4.388,18.362-5.147,27.452-1.176,14.083.289,32.671-.776,43.946C187.516,501.709,184,505,184,505s-5.023-14.721-17.383-15C150.757,489.642,146,501,146,501s-1.222-12.438-2.851-35.692c-1.1-15.735-10.391-34.133-11.615-51.591C129.141,379.561,135,338,135,338Zm131,0a336.764,336.764,0,0,0-33.637,21.339A261.238,261.238,0,0,0,205,383s0.28,17.915,1.815,39.414c0.634,8.876,4.388,18.362,5.147,27.452,1.261,15.1.936,33.887,2,45.7A32.657,32.657,0,0,0,217,507s2.449-16.793,20.383-17A21.89,21.89,0,0,1,256,500s0.222-11.438,1.851-34.692c1.1-15.735,10.391-34.133,11.615-51.591C271.859,379.561,266,338,266,338Z"/>
        <path id="m-f-i-knee" class="cls-1" d="M164.5,489A19.5,19.5,0,1,1,145,508.5,19.5,19.5,0,0,1,164.5,489Zm73,0A19.5,19.5,0,1,1,218,508.5,19.5,19.5,0,0,1,237.5,489Z"/>
        <path id="m-f-i-shin" class="cls-1" d="M145,513s9.675,15,19.855,15C176.612,528,183,512,183,512a90.551,90.551,0,0,0-1.275,18.627c0.205,8.43,2.3,18.964,2.018,29.961-0.321,12.439-4.965,25.472-5.629,36.726C177.082,614.8,177,628,177,628H153a114.66,114.66,0,0,0-2.209-24.938C147.174,584.034,140,557.877,140,538.477,140,523.122,145,513,145,513Zm112,0s-9.675,15-19.855,15C225.388,528,219,512,219,512a90.551,90.551,0,0,1,1.275,18.627c-0.205,8.43-2.3,18.964-2.018,29.961,0.321,12.439,4.965,25.472,5.629,36.726C224.918,614.8,225,628,225,628h21s2.442-10.384,5.209-24.938C254.826,584.034,262,557.877,262,538.477,262,523.122,257,513,257,513Z"/>
        <path id="m-f-i-ankle" class="cls-1" d="M152,627l25,1a123.192,123.192,0,0,1,2.086,14.117A23.384,23.384,0,0,1,178,652H152s-0.731-.463-0.472-3.9c0.241-3.187,1.472-7.212,1.472-10.89A55.187,55.187,0,0,0,152,627Zm95,0-22,1a123.192,123.192,0,0,0-2.086,14.117A23.384,23.384,0,0,0,224,652h25s-0.269-.463-0.528-3.9c-0.241-3.187-2.472-7.212-2.472-10.89A55.187,55.187,0,0,1,247,627Z"/>
        <path id="m-f-i-foot" class="cls-1" d="M151,651h27a56.941,56.941,0,0,1-1.139,13.1C175.172,671.334,176,674,176,674l-33-1a55.088,55.088,0,0,0,6.084-11.232A34.353,34.353,0,0,0,151,651Zm99,0H223a56.941,56.941,0,0,0,1.139,13.1c1.689,7.236.861,9.9,0.861,9.9l33-1a55.088,55.088,0,0,1-6.084-11.232A34.353,34.353,0,0,1,250,651Z"/>
        <path id="m-f-i-toes" class="cls-1" d="M143,673h32a19.307,19.307,0,0,1,.389,8.456A110.789,110.789,0,0,1,172,694s-9.121,3.246-18.413,1.516c-5.769-1.074-11.6-6.524-15.362-8.4C134.537,685.269,138,677,138,677Zm116,0H227a19.307,19.307,0,0,0-.389,8.456A110.789,110.789,0,0,0,230,694s9.121,3.246,18.413,1.516c5.769-1.074,11.6-6.524,15.362-8.4C267.463,685.269,264,677,264,677Z"/>
      </g>
      <g id="m-f-i-hand">
        <path id="m-f-i-shoulder" class="cls-1" d="M117,132c9.886-10.456,30-13,30-13s-6.677,8.392-12,39c-7.224,6.654-27,8-27,8S107.114,142.456,117,132Zm164,0c-9.886-10.456-30-13-30-13s6.677,8.392,12,39c7.224,6.654,27,8,27,8S290.886,142.456,281,132Z"/>
        <path id="m-f-i-armpit" class="cls-1" d="M135.5,158c5.5-.709,5.5,9.73,5.5,20.5s-4.79,26.145-5.5,26.5-7.5-14.73-7.5-25.5S130,158.709,135.5,158Zm128,0c-5.5-.709-5.5,9.73-5.5,20.5s4.79,26.145,5.5,26.5,7.5-14.73,7.5-25.5S269,158.709,263.5,158Z"/>
        <path id="m-f-i-bicep" class="cls-1" d="M108,166l21-4a86.285,86.285,0,0,0,1.61,34.66C128.429,215.745,121,236,121,236s-13.7-5.5-12.992-5.5S93,229,93,229s9.024-25.3,13.436-43.833A60.918,60.918,0,0,0,108,166Zm182,0-21-4a86.285,86.285,0,0,1-1.61,34.66C269.571,215.745,277,236,277,236s13.7-5.5,12.992-5.5S305,229,305,229s-9.024-25.3-13.436-43.833A60.918,60.918,0,0,1,290,166Z"/>
        <path id="m-f-i-tricep" class="cls-1" d="M130,202l6,5-11,33-5-4Zm138,0-6,5,11,33,5-4Z"/>
        <path id="m-f-i-elbow" class="cls-1" d="M92,228s11.214,0.15,20.1,3.76C118.944,234.54,124,241,124,241l-4,19s-9.12,4.96-18.179,1.94C92.881,258.96,84,248,84,248a19.221,19.221,0,0,0,4.231-7.29C90.451,234.327,92,228,92,228Zm214,0s-11.214.15-20.1,3.76C279.056,234.54,274,241,274,241l4,19s9.12,4.96,18.179,1.94C305.119,258.96,314,248,314,248a19.216,19.216,0,0,1-4.231-7.29C307.549,234.327,306,228,306,228Z"/>
        <path id="m-f-i-forearm" class="cls-1" d="M84,250s10.682,8.857,20.409,12.37C112.538,265.305,120,260,120,260a80.642,80.642,0,0,1-6.436,20.759C104.769,300.109,86,332,86,332l-20-6Zm230,0s-10.682,8.857-20.409,12.37C285.462,265.305,278,260,278,260a80.642,80.642,0,0,0,6.436,20.759C293.231,300.109,312,332,312,332l20-6Z"/>
        <path id="m-f-i-wrist" class="cls-1" d="M66,326l20,5-6,13-19-1Zm266,0-20,5,6,13,19-1Z"/>
        <path id="m-f-i-palm" class="cls-1" d="M59,342l22,2a104.525,104.525,0,0,1-.978,23.374A94.258,94.258,0,0,1,73,389l-29-5s3.161-5.479,8.014-12.479c2.815-4.061,7.526-8.634,9.066-12.946C64.236,349.74,59,342,59,342Zm280,0-22,2a104.508,104.508,0,0,0,.978,23.374A94.243,94.243,0,0,0,325,389l29-5s-3.161-5.479-8.014-12.479c-2.815-4.061-7.526-8.634-9.066-12.946C333.764,349.74,339,342,339,342Z"/>
        <path id="m-f-i-fingers" class="cls-1" d="M60,344s4.847,5.6,2.173,12.551C57.788,367.952,45,383,45,383l29,5s-4.909,24.619-10.745,24.437,4.2-22.887,3.128-22.887-10.089,29.117-15.013,28.2,3.426-27.095,4.77-26.827-8.892,28.446-13.7,29.168,6.285-31.42,6.285-31.42S39.121,415,39.021,415c-2.581,0-4.2,3.482-4.021-6s7.328-11.812,6.882-24.37c-0.027-.757-5.356-1.519-4.06-5.9,2.413-8.16,10.945-17.279,13.186-23.554C53.4,348.481,60,344,60,344Zm278,0s-4.847,5.6-2.173,12.551C340.212,367.952,353,383,353,383l-29,5s4.909,24.619,10.745,24.437-4.2-22.887-3.128-22.887,10.089,29.117,15.012,28.2-3.426-27.095-4.77-26.827,8.892,28.446,13.7,29.168-6.285-31.42-6.285-31.42,9.6,26.324,9.7,26.324c2.582,0,4.2,3.482,4.021-6s-7.328-11.812-6.882-24.37c0.027-.757,5.356-1.519,4.06-5.9-2.413-8.16-10.945-17.279-13.186-23.554C344.6,348.481,338,344,338,344Z"/>
      </g>
    </g>
    <g class="male_back">
      <path id="m-b-i-head" class="cls-1" d="M605.309,6c21.7,0,30.9,19.831,30.9,43.532,0,1.944,3.011-2.3,4.89,1.583,1.257,6.443-5.249,18.5-7.379,18.829-0.579,1.816-1.293,3.195-2.173,5.469-6.33,10-17.794,15.121-25.623,15.121s-20.438-4.718-26.776-15.8c-0.741-1.9-1.912-5.356-1.912-5.356S569.479,66,569.5,51.782c2.6-4.775,4.909-1.264,4.909-2.251C574.406,25.831,583.608,6,605.309,6Z"/>
      <path id="m-b-i-neck" class="cls-1" d="M582.441,78.1s11.1,10.437,23.232,10.437c11.751,0,22.7-10.437,22.7-10.437s-4.926,17.392,1.423,29.278c3.3,6.171,20.632,10.858,20.632,10.858s-22.245,12.349-44.7,12.349c-22.874,0-45.962-12.349-45.962-12.349s17.3-4.616,20.558-10.718C586.676,95.626,582.441,78.1,582.441,78.1Z"/>
      <g id="m-b-i-back">
        <path id="m-b-i-back_inner" class="cls-1" d="M561,124l34,8s3,40.107,3,80.654C598,254.1,594,305,594,305l-45-6s3.446-13.364,3.978-38.867c0.314-15.038-10.769-44.356-12.187-58.55a132.988,132.988,0,0,1,1.953-39.046Zm85,0-31,8s-3,40.335-3,81c0,41.331,4,92,4,92l46-6s-5.786-24.337-5.978-34.867c-0.314-15.038,9.769-49.356,11.187-63.55a148.954,148.954,0,0,0-.953-38.046Z"/>
        <path id="m-b-i-upper_spine" class="cls-1" d="M595,132h20a402.988,402.988,0,0,0-3,48.224c0,33.5,1,71.776,1,71.776H597s1-39.072,1-72.811A383.213,383.213,0,0,0,595,132Z"/>
        <path id="m-b-i-lower_spine" class="cls-1" d="M597,251h16l3,54H593Z"/>
      </g>
      <g id="m-b-i-buttock">
        <path id="m-b-i-buttonck_inner" class="cls-1" d="M555,307s25.954,1,50.806,1c24.648,0,50.194-1,50.194-1s-6.928,25.044-4.772,39.654C653.565,362.494,664,377,664,377s-11.858,14-24.934,14c-16.073,0-33.987-11-33.987-11s-16.97,10.275-32.162,10.537C559.138,390.774,544,377,544,377s10.3-13.03,13.433-29.239C560.282,333.042,555,307,555,307Z"/>
        <path id="m-b-i-hip_back" class="cls-1" d="M546,312s12.182,3.1,13,11c3,12.812.724,28.551-8,40-5.725,6-15,3-15,3Zm118,0s-11.182,3.1-12,11c-3,12.812-2.724,28.551,6,40,5.725,6,14,3,14,3Z"/>
      </g>
      <g id="m-b-i-leg">
        <path id="m-b-i-hammstring" class="cls-1" d="M535,374s18.679,14.211,36.381,15.3C585.851,390.191,600,383,600,383s-0.77,17.048-1.759,37.644c-0.795,16.558-8.335,34.055-9.792,50.516C586.661,491.368,584,508,584,508s-8.5-10.756-18.131-10.509C556,497.744,548,508,548,508s0.285-16.671-2.124-28.355c-3.634-17.623-4.846-33.376-8.13-56.714A304.89,304.89,0,0,1,535,374Zm136,0s-17.679,14.211-35.381,15.3C621.149,390.191,607,383,607,383s0.77,17.048,1.759,37.644c0.795,16.558,4.335,35.055,5.792,51.516A226.557,226.557,0,0,0,621,509s10.5-11.756,20.131-11.509C651,497.744,659,508,659,508s-3.285-16.671-.876-28.355c3.634-17.623,5.846-33.376,9.13-56.714A403.232,403.232,0,0,0,671,374Z"/>
        <path id="m-b-i-knee_back" class="cls-1" d="M566,497a18.507,18.507,0,1,1-19,18.5A18.755,18.755,0,0,1,566,497Zm75,0a18.507,18.507,0,1,1-19,18.5A18.755,18.755,0,0,1,641,497Z"/>
        <path id="m-b-i-calf" class="cls-1" d="M548,522s7.1,10.78,16.025,11.545C572.6,534.28,581,526,581,526a319.393,319.393,0,0,1,4.711,47.088C582.889,600.7,577,636,577,636l-19,4a272.758,272.758,0,0,1-6.6-26.775c-2.765-14.921-7.025-26-8.5-44.414A126.965,126.965,0,0,1,548,522Zm111,0s-9.1,10.78-18.025,11.545C632.4,534.28,624,526,624,526s-2.324,23.085-2.711,47.088C624.111,600.7,630,636,630,636l19,4a272.758,272.758,0,0,0,6.6-26.775c2.765-14.921,7.025-26,8.5-44.414A126.965,126.965,0,0,0,659,522Z"/>
        <path id="m-b-i-ankle" class="cls-1" d="M557,639l20-3,3.409,17.825L580,664l-22,3s-4.4-5.218-1-16.8C559.294,642.381,557,639,557,639Zm93,0-20-3-3.409,17.825L627,664l22,3s4.4-5.218,1-16.8C647.706,642.381,650,639,650,639Z"/>
        <path id="m-b-i-sole" class="cls-1" d="M557,667l23-3a140.382,140.382,0,0,0-.948,17.422c0.158,7.136-2.964,8.108-6.052,10.578-6.485,3.705-18.985-5.6-23-9-1.544-2.161-2.213-15.773-.356-16.834S557,667,557,667Zm93,0-23-3a140.382,140.382,0,0,1,.948,17.422C627.79,688.558,631.912,689.53,635,692c6.485,3.705,18.985-7.6,23-11,1.544-2.161,4.273-10.652,1.356-13.834C656.97,666.106,650,667,650,667Z"/>
      </g>
      <g id="m-b-i-hand">
        <path id="m-b-i-shoulder" class="cls-1" d="M523.5,133.132C532.723,123.374,554.488,120,554.488,120s4.247,6.228.943,18.125c-1.667,6-10.254,13.184-13.138,22.272-6.74,6.21-29.189,13.466-29.189,13.466S514.277,142.891,523.5,133.132Zm161,0C675.277,123.374,653.512,120,653.512,120s-4.247,6.228-.943,18.125c1.667,6,10.254,13.184,13.138,22.272,6.74,6.21,29.189,13.466,29.189,13.466S693.723,142.891,684.5,133.132Z"/>
        <path id="m-b-i-tricep" class="cls-1" d="M513.1,173.863L542.7,161.13s-4.035,15.886-2.5,31.347c-0.128,1.154-.079,17.695-0.562,18.932-4.849,12.416-16.4,41.783-16.4,41.783a94.382,94.382,0,0,0-15.121-8.131c-7.807-3.172-14-5.4-14-5.4s13.418-36.611,17.535-53.908C514.025,175.753,513.1,173.863,513.1,173.863Zm181.792,0L665.305,161.13s4.035,15.886,2.5,31.347c0.128,1.154.079,17.695,0.562,18.932,4.849,12.416,16.4,41.783,16.4,41.783a94.382,94.382,0,0,1,15.121-8.131c7.807-3.172,14-5.4,14-5.4s-13.418-36.611-17.535-53.908C693.975,175.753,694.9,173.863,694.9,173.863Z"/>
        <path id="m-b-i-elbow" class="cls-1" d="M493.792,240.573a136.967,136.967,0,0,1,18.328,6.441,53.686,53.686,0,0,1,12.174,8.106l-3.954,17.764s-13.088,3.309-21.75.033c-8.549-3.232-12.654-11.772-12.654-11.772a38.944,38.944,0,0,1,2.492-8.688C490.916,246.532,493.792,240.573,493.792,240.573Zm220.416,0a136.967,136.967,0,0,0-18.328,6.441,53.686,53.686,0,0,0-12.174,8.106l3.954,17.764s13.088,3.309,21.75.033c8.549-3.232,12.654-11.772,12.654-11.772a38.944,38.944,0,0,0-2.492-8.688C717.084,246.532,714.208,240.573,714.208,240.573Z"/>
        <path id="m-b-i-forearm_" data-name="m-b-i-forearm " class="cls-1" d="M485.625,261.44s5.745,11.251,15.358,12.069a127.569,127.569,0,0,0,18.738-.33l-12.082,27.2-18.379,31.1-17.438-3.321Zm236.75,0s-5.745,11.251-15.358,12.069a127.569,127.569,0,0,1-18.738-.33l12.082,27.2,18.379,31.1,17.438-3.321Z"/>
        <path id="m-b-i-wrist_" data-name="m-b-i-wrist " class="cls-1" d="M471.822,328.161l17.163,3.16-3.906,11.911-17.658-4.749Zm264.356,0-17.163,3.16,3.906,11.911,17.658-4.749Z"/>
        <path id="m-b-i-palm_" data-name="m-b-i-palm " class="cls-1" d="M467.457,339.277l17.525,3.867a65.606,65.606,0,0,1,.087,20.814,46.432,46.432,0,0,1-6.551,17.183l-26.055-5.667s-4.051-2.113.477-8.646c2.626-3.79,2.021-10.057,3.458-14.082C459.342,344.5,467.457,339.277,467.457,339.277Zm273.086,0-17.525,3.867a65.606,65.606,0,0,0-.087,20.814,46.432,46.432,0,0,0,6.551,17.183l26.055-5.667s4.051-2.113-.477-8.646c-2.626-3.79-2.021-10.057-3.458-14.082C748.658,344.5,740.543,339.277,740.543,339.277Z"/>
        <path id="m-b-i-fingers" class="cls-1" d="M460.39,346.144L450.311,375.85l30.14,4.357s-5.58,22.977-11.024,22.806,4.025-18.359,1.918-18.359-8.412,26.174-13.005,25.323,5.62-25.568,4.45-26.037-8.3,28.548-12.785,29.222,6.611-29.232,4.864-30.323-7.958,23.567-8.051,23.567c-2.408,0-5.8-1.364-3.751-6.6,7.513-22.764,1.633-24.25,1.633-24.25s2.061-10.432,7.3-16.982A91.067,91.067,0,0,0,460.39,346.144Zm287.22,0,10.079,29.706-30.14,4.357s5.58,22.977,11.024,22.806-4.025-18.359-1.918-18.359,8.412,26.174,13,25.323-5.62-25.568-4.45-26.037,8.295,28.548,12.785,29.222-6.611-29.232-4.864-30.323,7.958,23.567,8.051,23.567c2.408,0,5.8-1.364,3.751-6.6-7.513-22.764-1.633-24.25-1.633-24.25s-2.061-10.432-7.3-16.982A91.067,91.067,0,0,1,747.61,346.144Z"/>
      </g>
    </g>
  </g>
  <g class="female">
    <g class="female_front">
      <g id="f-f-i-head">
        <path id="f-f-i-scalp" class="cls-1" d="M1000.55,2c22.25,0,29.05,18.232,29.05,36.041,0,0.285-13.01-7.588-29.05-7.588S971.5,38.125,971.5,38.041C971.5,20.232,978.292,2,1000.55,2Z"/>
        <path id="f-f-i-eye" class="cls-1" d="M987.063,35.887c5.442,0,9.853,2.335,9.853,5.216s-4.411,5.217-9.853,5.217-9.853-2.336-9.853-5.217S981.621,35.887,987.063,35.887Zm26.967,0c5.44,0,9.85,2.335,9.85,5.216s-4.41,5.217-9.85,5.217-9.85-2.336-9.85-5.217S1008.59,35.887,1014.03,35.887Z"/>
        <path id="f-f-i-nose" class="cls-1" d="M1000.55,35.784c2.02,0,5.24,5.52,5.24,12.33s0.83,11.381-5.24,11.381-5.242-4.572-5.242-11.381S998.524,35.784,1000.55,35.784Z"/>
        <path id="f-f-i-mouth" class="cls-1" d="M1000.55,63.289c7.63,0,13.81,2.76,13.81,6.165s-6.18,6.165-13.81,6.165-13.814-2.76-13.814-6.165S992.919,63.289,1000.55,63.289Z"/>
        <path id="f-f-i-jaw" class="cls-1" d="M1001.02,78.619c4.93,0,9.35,2.619,13.08,0,4.39-3.079,8.78-12.776,10.95-15.642,1.71-2.257,1.69.575,1.69,2.841,0,7.6-10.46,24.186-25.72,24.186s-25.715-16.59-25.715-24.186c0-2.48,1.115-4.914,3.148-1.384,1.867,3.244,5.462,11.313,8.725,13.859C991.245,81.461,995.323,78.619,1001.02,78.619Z"/>
        <path id="f-f-i-cheek" class="cls-1" d="M977.21,45.371a28.844,28.844,0,0,0,9.609,1.9,33.087,33.087,0,0,0,7.537-.948,24.041,24.041,0,0,0-1.374,8.456c0.218,3.483.421,6.72,0.421,6.72s-5.883.117-9.525-1.9S977.21,45.371,977.21,45.371Zm46.67,0a28.819,28.819,0,0,1-9.6,1.9,33.108,33.108,0,0,1-7.54-.948,23.957,23.957,0,0,1,1.37,8.456c-0.22,3.483-.42,6.72-0.42,6.72s5.89,0.117,9.53-1.9S1023.88,45.371,1023.88,45.371Z"/>
        <path id="f-f-i-ear" class="cls-1" d="M1033.02,41.98c3.94,0.392,3.11,5.944,2.27,12.7s-2.94,11.184-5.3,11.772-2.15-5-1.31-11.754S1030.86,41.588,1033.02,41.98Zm-63.043,0c-3.936.392-3.1,5.944-2.264,12.7s2.939,11.184,5.3,11.772,2.149-5,1.311-11.754S972.141,41.588,969.977,41.98Z"/>
      </g>
      <path id="f-f-i-neck" class="cls-1" d="M977.441,74.1s11.1,16.437,23.229,16.437c11.75,0,23.7-17.437,23.7-17.437s-5.92,20.392.42,32.278c3.3,6.171,20.64,9.858,20.64,9.858s-22.25,11.349-44.7,11.349c-22.874,0-46.962-11.349-46.962-11.349s19.3-3.616,22.557-9.718C982.676,93.626,977.441,74.1,977.441,74.1Z"/>
      <g id="f-f-i-chest">
        <path id="f-f-i-pectoral" class="cls-1" d="M1053,134s-43.98,1.276-47,5-0.14,36.635,5,51c5.6,8.853,26,14.611,44,5,0.03-7.9-2.15-16.7-2.41-25.113C1052,150.94,1053,134,1053,134Zm-105,0s43.984,1.276,47,5,0.144,36.635-5,51c-5.6,8.853-26,14.611-44,5-0.028-7.9,2.151-16.7,2.411-25.113C949,150.94,948,134,948,134Z"/>
        <path id="f-f-i-sternum" class="cls-1" d="M994,139h12v23.555c0,17.213,5,27.445,5,27.445s-8.18-1-11.271-1c-2.907,0-10.729,1-10.729,1s6-10.054,6-27.2C995,148.761,994,139,994,139Z"/>
        <path id="f-f-i-lateral_chest" class="cls-1" d="M947,194s-0.367.679,10.943,5.251c35.958-.675,24.233-9.947,42.507-10.251s5.23,9.373,39.96,10.345C1054.73,194.533,1055,195,1055,195s1-1.952,1,5.808A32.7,32.7,0,0,1,1053,214a296.007,296.007,0,0,0-52.59-4.517A314.591,314.591,0,0,0,949,214a46.581,46.581,0,0,1-3.526-13.765C944.733,192.574,947,194,947,194Z"/>
      </g>
      <g id="f-f-i-abdomen">
        <path id="f-f-i-upper_abdomen" class="cls-1" d="M949,214a261.755,261.755,0,0,1,52.15-5,224.016,224.016,0,0,1,50.85,6,98.243,98.243,0,0,0-1.94,22.185A78.742,78.742,0,0,0,1054,257s-26.3,7-53.06,7c-27.724,0-53.94-7-53.94-7a55.413,55.413,0,0,0,4.175-16.835C952.016,228.11,949,214,949,214Z"/>
        <path id="f-f-i-lower_abdomen" class="cls-1" d="M947,257a216.546,216.546,0,0,0,52.256,7c26.994,0,54.744-7,54.744-7l5,32s-29.03,16.735-58.72,17S942,287,942,287Z"/>
      </g>
      <g id="f-f-i-pelvis">
        <path id="f-f-i-hip" class="cls-1" d="M942,292s10.6,5.322,14,14,4.147,11.812-3,21-20,13-20,13,1.741-17.91,4.352-35.931C939.73,287.666,942,292,942,292Zm118,0s-10.6,5.322-14,14-4.15,11.812,3,21,21,13,21,13-2.74-13.91-5.35-31.931C1062.27,291.666,1060,292,1060,292Z"/>
        <path id="f-f-i-pelvis_inner" class="cls-1" d="M970,301s18.556,6,32.45,6c14.59,0,30.55-6,30.55-6s2.7,5.066,2.53,6.257C1020.05,313.212,1009,334,1009,334H994s-8.392-19.841-25.748-26.647C967.742,306.162,970,301,970,301Z"/>
        <path id="f-f-i-genitals" class="cls-1" d="M993,334h17s-0.47,14.3-2,16-10.128,1.191-12,0S993,334,993,334Z"/>
        <path id="f-f-i-groin" class="cls-1" d="M983.58,327.953c9.3,12.822,14.664,20.794,11.981,22.739s-11.395-3.872-20.7-16.694S959.2,310.2,961.885,308.259,974.281,315.131,983.58,327.953Zm35.84,0c-9.3,12.822-14.66,20.794-11.98,22.739s11.39-3.872,20.69-16.694,15.67-23.794,12.98-25.739S1028.72,315.131,1019.42,327.953Z"/>
      </g>
      <g id="f-f-i-leg">
        <path id="f-f-i-thigh" class="cls-1" d="M935,311a336.764,336.764,0,0,1,33.637,21.339A261.238,261.238,0,0,1,996,356s0.72,17.915-.815,39.414c-0.634,8.876-4.147,27.452-4.147,27.452l-0.776,43.946L989,478s-6.023-12.721-18.383-13C954.757,464.642,949,481,949,481a335.669,335.669,0,0,1-5.851-42.692c-1.1-15.735-10.391-34.133-11.615-51.591C929.141,352.561,935,311,935,311Zm131,0a336.749,336.749,0,0,0-33.64,21.339A261.264,261.264,0,0,0,1005,356s0.28,17.915,1.82,39.414c0.63,8.876,3.14,28.452,3.14,28.452l3,40.7L1013,478s2.45-12.793,20.38-13A17.348,17.348,0,0,1,1050,476l9.85-38.692s8.39-33.133,9.62-50.591C1071.86,352.561,1066,311,1066,311Z"/>
        <path id="f-f-i-knee" class="cls-1" d="M969.5,464A19.5,19.5,0,1,1,950,483.5,19.5,19.5,0,0,1,969.5,464Zm63,0a19.5,19.5,0,1,1-19.5,19.5A19.5,19.5,0,0,1,1032.5,464Z"/>
        <path id="f-f-i-shin" class="cls-1" d="M952,492s7.675,11,17.855,11C981.612,503,987,491,987,491a123.2,123.2,0,0,1,1.725,18.627c0.2,8.43,3.3,24.964,3.018,35.961-0.321,12.439-3.965,20.472-4.629,31.726C986.082,594.8,984,626,984,626H960s0.558-29.384-2.209-43.938C954.174,563.034,949,536.877,949,517.477,949,502.122,952,492,952,492Zm97,0s-4.67,10-14.85,10c-11.76,0-20.15-12-20.15-12s-0.46,8.474-.73,19.627c-0.2,8.43-3.3,18.964-3.01,29.961,0.32,12.439,3.96,25.472,4.63,36.726C1015.92,593.8,1018,626,1018,626h23s-0.56-29.384,2.21-43.938c3.62-19.028,8.79-45.185,8.79-64.585C1052,502.122,1049,492,1049,492Z"/>
        <path id="f-f-i-ankle" class="cls-1" d="M960,625l24,1a123.192,123.192,0,0,1,2.086,14.117A23.384,23.384,0,0,1,985,650H959s-0.731-.463-0.472-3.9c0.241-3.187,1.472-7.212,1.472-10.89V625Zm81,0-23,1s-0.56,7.267-1.09,14.117A23.339,23.339,0,0,0,1018,650h26s-0.27-.463-0.53-3.9c-0.24-3.187-1.47-7.212-1.47-10.89A55.187,55.187,0,0,0,1041,625Z"/>
        <path id="f-f-i-foot" class="cls-1" d="M957,650h27l-0.139,13.1L983,673l-32-1s2.057-5.656,4.084-11.232A34.353,34.353,0,0,0,957,650Zm87,0h-27l1.14,13.1L1018,673l32-1s-2.06-5.656-4.08-11.232A34.157,34.157,0,0,1,1044,650Z"/>
        <path id="f-f-i-toes" class="cls-1" d="M951,672l32,1s1.244,7.969.389,12.456A110.789,110.789,0,0,1,980,698s-9.121,3.246-18.413,1.516c-5.769-1.074-11.6-1.524-15.362-3.4C942.537,694.269,946,681,946,681Zm99,0-32,1s-0.24,7.969.61,12.456A110.451,110.451,0,0,0,1022,698s9.12,3.246,18.41,1.516c5.77-1.074,12.61-2.524,16.36-4.4,3.69-1.844.23-13.113,0.23-13.113Z"/>
      </g>
      <g id="f-f-i-hand">
        <path id="f-f-i-shoulder" class="cls-1" d="M925.5,128.132C934.723,118.374,953.488,116,953.488,116s-6.229,7.832-11.2,36.4c-6.74,6.21-25.189,7.466-25.189,7.466S916.277,137.891,925.5,128.132Zm149,0c-9.22-9.758-27.99-12.132-27.99-12.132s6.23,7.832,11.2,36.4c6.74,6.21,25.19,7.466,25.19,7.466S1083.72,137.891,1074.5,128.132Z"/>
        <path id="f-f-i-armpit" class="cls-1" d="M942.759,152.4c5.13-.662,5.131,9.081,5.131,19.132s-4.469,24.4-5.131,24.732-7-13.748-7-23.8S937.629,153.059,942.759,152.4Zm114.481,0c-5.13-.662-5.13,9.081-5.13,19.132s4.47,24.4,5.13,24.732,7-13.748,7-23.8S1062.37,153.059,1057.24,152.4Z"/>
        <path id="f-f-i-bicep" class="cls-1" d="M917.1,159.863L936.7,156.13s-3.963,9.69.5,27.347c-2.034,17.812-13.965,38.715-13.965,38.715s-6.783-2.131-6.121-2.131-14-1.4-14-1.4,8.418-23.611,12.535-40.908A56.867,56.867,0,0,0,917.1,159.863Zm165.8,0-19.6-3.733s3.97,9.69-.5,27.347c2.04,17.812,13.97,38.715,13.97,38.715s6.78-2.131,6.12-2.131,12-1.4,12-1.4-7.42-21.611-11.53-38.908A53.128,53.128,0,0,1,1082.9,159.863Z"/>
        <path id="f-f-i-tricep" class="cls-1" d="M937.628,186.461l3.6,8.666-12.263,33.8-5.664-6.733Zm124.742,0-3.6,8.666,12.27,33.8,5.66-6.733Z"/>
        <path id="f-f-i-elbow" class="cls-1" d="M903.177,217.726a56.165,56.165,0,0,1,17.753,3.509c6.384,2.594,9.1,6.623,9.1,6.623L925.3,245.59s-7.508,4.629-15.96,1.811c-8.34-2.781-13.626-11.01-13.626-11.01a17.94,17.94,0,0,0,3.948-6.8C901.732,223.631,903.177,217.726,903.177,217.726Zm191.643,0a48.952,48.952,0,0,0-15.75,3.509c-6.38,2.594-9.1,6.623-9.1,6.623l4.73,17.732s7.51,4.629,15.96,1.811a25.336,25.336,0,0,0,12.63-10.01,32.749,32.749,0,0,1-3.95-7.8C1097.27,223.631,1094.82,217.726,1094.82,217.726Z"/>
        <path id="f-f-i-forearm" class="cls-1" d="M895.713,236.258a25.582,25.582,0,0,0,13.04,10.544c7.584,2.74,15.546-1.212,15.546-1.212a77.506,77.506,0,0,1-6,21.374c-8.2,18.058-21.715,37.821-21.715,37.821l-19.658-5.6Zm207.577,1s-2.97,6.266-12.04,9.544c-7.59,2.74-15.55-1.212-15.55-1.212a77.458,77.458,0,0,0,6.01,21.374c8.2,18.058,21.71,37.821,21.71,37.821l19.66-5.6Z"/>
        <path id="f-f-i-wrist" class="cls-1" d="M875.921,299.186l20.658,4.666-6.6,14.132-21.726-4.933Zm248.159,0-20.66,4.666,6.6,14.132,21.72-4.933Z"/>
        <path id="f-f-i-palm" class="cls-1" d="M868.39,313.118l20.525,4.866A139.752,139.752,0,0,0,885,334.8c-1.873,10.538-6.552,15.182-6.552,15.182L853.4,341.315s1.949-1.113,6.477-7.647c2.626-3.789,10.021-2.057,11.458-6.081C874.275,319.342,868.39,313.118,868.39,313.118Zm263.22,0-20.52,4.866A140.526,140.526,0,0,1,1115,334.8c1.87,10.538,6.55,15.182,6.55,15.182l25.05-8.666s-1.95-1.113-6.47-7.647c-2.63-3.789-10.02-2.057-11.46-6.081C1125.73,319.342,1131.61,313.118,1131.61,313.118Z"/>
        <path id="f-f-i-fingers" class="cls-1" d="M867.323,312.984s7.693,5.416,4.027,14.713c-14.857,10.407-15.021,12.685-15.021,12.685l22.055,8.666s-2.58,24.976-8.024,24.806,4.025-22.359,1.918-22.359-8.412,26.173-13,25.323,5.62-25.569,4.45-26.037S854.428,375.329,849.938,376s4.864-26.323,4.864-26.323-8.958,21.567-9.051,21.567c-2.408,0-5.794-1.2-3.751-5.6,5.085-12.126,9.134-19.449,9.421-22.744-0.026-.707-8,1.582-6.788-2.507,2.251-7.615,11.211-11.125,13.3-16.981C860.165,317.167,867.323,312.984,867.323,312.984Zm265.357,0s-7.7,5.416-4.03,14.713c14.86,10.407,15.02,12.685,15.02,12.685l-22.05,8.666s2.58,24.976,8.02,24.806-4.02-22.359-1.92-22.359,8.41,26.173,13.01,25.323-5.62-25.569-4.45-26.037,9.29,24.548,13.78,25.221-4.86-26.323-4.86-26.323,8.96,21.567,9.05,21.567c2.41,0,5.79-1.2,3.75-5.6-5.09-12.126-9.13-19.449-9.42-22.744,0.02-.707,8,1.582,6.79-2.507-2.25-7.615-11.21-11.125-13.3-16.981C1139.83,317.167,1132.68,312.984,1132.68,312.984Z"/>
      </g>
    </g>
    <g class="female_back">
      <path id="f-b-i-head" class="cls-1" d="M1400.31,0c21.7,0,30.9,19.831,30.9,43.532,0,1.944,3.01-2.3,4.89,1.583,1.26,6.443-5.25,18.5-7.38,18.829-0.58,1.816-1.29,3.195-2.17,5.469-6.33,10-17.79,15.121-25.62,15.121s-20.44-4.718-26.78-15.8c-0.74-1.9-1.91-5.355-1.91-5.355s-7.76-3.377-7.74-17.595c2.6-4.775,4.91-1.264,4.91-2.251C1369.41,19.831,1378.61,0,1400.31,0Z"/>
      <path id="f-b-i-neck" class="cls-1" d="M1377.44,74.1s11.1,10.437,23.23,10.437c11.75,0,22.7-10.437,22.7-10.437s-4.92,17.392,1.42,29.278c3.3,6.171,20.64,10.858,20.64,10.858s-22.25,12.349-44.7,12.349c-22.87,0-45.96-12.349-45.96-12.349s17.3-4.616,20.56-10.718C1381.68,91.626,1377.44,74.1,1377.44,74.1Z"/>
      <g id="f-b-i-back">
        <path id="f-b-i-back_inner" class="cls-1" d="M1363,118l28,8s3,40.107,3,80.654c0,41.443-4,83.346-4,83.346l-48-2s9.45-22.364,9.98-47.867c0.31-15.038-6.77-31.356-8.19-45.55a149.155,149.155,0,0,1,.95-38.046Zm74,0-26,8s-3,40.335-3,81c0,41.331,4,83,4,83l48-2s-9.45-22.364-9.98-47.867c-0.31-15.038,6.77-31.356,8.19-45.55a149.155,149.155,0,0,0-.95-38.046Z"/>
        <path id="f-b-i-upper_spine" class="cls-1" d="M1391,126h20a402.988,402.988,0,0,0-3,48.224c0,33.5,1,71.776,1,71.776h-16s1-39.072,1-72.811A383.213,383.213,0,0,0,1391,126Z"/>
        <path id="f-b-i-lower_spine" class="cls-1" d="M1393,245h16l3,45h-23Z"/>
      </g>
      <g id="f-b-i-buttock">
        <path id="f-b-i-buttock_inner" class="cls-1" d="M1351,291s25.95-2,50.81-2c24.64,0,50.19,2,50.19,2s-7.93,14.044-5.77,28.654C1448.56,335.494,1460,350,1460,350s-11.86,10-24.93,10c-16.08,0-33.99-9-33.99-9s-16.97,8.275-32.16,8.537C1355.14,359.774,1340,351,1340,351s12.3-16.03,15.43-32.239C1358.28,304.042,1351,291,1351,291Z"/>
        <path id="f-b-i-hip_back" class="cls-1" d="M1340,289s14.18,3.1,15,11c3,12.812.72,28.551-8,40-5.72,6-16,3-16,3Zm121,0s-14.18,3.1-15,11c-3,12.812-.72,28.551,8,40,5.72,6,16,3,16,3Z"/>
      </g>
      <g id="f-b-i-leg">
        <path id="f-b-i-hammstring" class="cls-1" d="M1331,345s18.68,13.211,36.38,14.3c14.47,0.891,27.62-5.3,27.62-5.3a219.267,219.267,0,0,1,1.24,36.644c-0.79,16.558-3.33,36.055-4.79,52.516C1389.66,463.368,1389,482,1389,482s-9.51-11.756-19.13-11.509C1360,470.744,1351,483,1351,483s-1.72-10.671-4.12-22.355c-3.64-17.623-9.85-44.376-13.13-67.714A293.812,293.812,0,0,1,1331,345Zm140,0s-18.68,13.211-36.38,14.3c-14.47.891-27.62-5.3-27.62-5.3a219.267,219.267,0,0,0-1.24,36.644c0.79,16.558,3.33,36.055,4.79,52.516C1412.34,463.368,1413,482,1413,482s9.51-11.756,19.13-11.509C1442,470.744,1451,483,1451,483s1.72-10.671,4.12-22.355c3.64-17.623,9.85-44.376,13.13-67.714A293.812,293.812,0,0,0,1471,345Z"/>
        <path id="f-b-i-knee_back" class="cls-1" d="M1370,469a18.507,18.507,0,1,1-19,18.5A18.757,18.757,0,0,1,1370,469Zm62,0a18.507,18.507,0,1,1-19,18.5A18.757,18.757,0,0,1,1432,469Z"/>
        <path id="f-b-i-calf" class="cls-1" d="M1352,495s9.1,10.78,18.02,11.545C1378.6,507.28,1387,498,1387,498a335.959,335.959,0,0,1,3.71,44.088C1391.29,577.726,1385,621,1385,621l-23-1a147.182,147.182,0,0,0-2.6-22.775c-2.76-14.921-8.02-35-9.5-53.414A210.034,210.034,0,0,1,1352,495Zm98,0s-9.1,10.78-18.02,11.545C1423.4,507.28,1415,498,1415,498a335.959,335.959,0,0,0-3.71,44.088C1410.71,577.726,1417,621,1417,621l23-1a147.182,147.182,0,0,1,2.6-22.775c2.76-14.921,8.02-35,9.5-53.414A210.034,210.034,0,0,0,1450,495Z"/>
        <path id="f-b-i-ankle" class="cls-1" d="M1362,620h23a193.236,193.236,0,0,1,1.41,24.825A81.664,81.664,0,0,1,1384,662l-27-4a109.393,109.393,0,0,1,4-21.8A42.55,42.55,0,0,0,1362,620Zm78,0h-23a193.236,193.236,0,0,0-1.41,24.825A81.664,81.664,0,0,0,1418,662l27-4a109.393,109.393,0,0,0-4-21.8A42.55,42.55,0,0,1,1440,620Z"/>
        <path id="f-b-i-sole" class="cls-1" d="M1356,657l29,4a193.983,193.983,0,0,0-.95,19.422c0.16,7.136-6.03,11.923-11.05,12.578s-6.95-3.961-23-16c-2.25-2.365-4.01-7.777-3.36-10.834S1356,657,1356,657Zm90,0-29,4s0.13,2.144-.05,10.422A25.762,25.762,0,0,0,1422,687c7.51,6.949,20.94,5.187,30-11,2.25-2.365,2.67-6.777,1.36-9.834S1446,657,1446,657Z"/>
      </g>
      <g id="f-b-i-hand">
        <path id="f-b-i-shoulder" class="cls-1" d="M1329.5,125.132c9.22-9.758,27.99-12.132,27.99-12.132s2.25,5.228-1.06,17.125c-1.67,6-7.25,14.184-10.14,23.272-6.74,6.21-27.19,6.466-27.19,6.466S1320.28,134.891,1329.5,125.132Zm143,0c-9.22-9.758-27.99-12.132-27.99-12.132s-2.25,5.228,1.06,17.125c1.67,6,7.25,14.184,10.14,23.272,6.74,6.21,27.19,6.466,27.19,6.466S1481.72,134.891,1472.5,125.132Z"/>
        <path id="f-b-i-tricep" class="cls-1" d="M1319.1,159.863l26.6-4.733s-4.04,14.886-2.5,30.347c-0.13,1.154,1.92,17.695,1.44,18.932-4.85,12.416-19.41,40.783-19.41,40.783s-3.31-4.959-11.12-8.131a81.068,81.068,0,0,0-15-4.4s14.42-37.611,18.53-54.908A56.888,56.888,0,0,0,1319.1,159.863Zm163.8,0-26.6-4.733s4.04,14.886,2.5,30.347c0.13,1.154-1.92,17.695-1.44,18.932,4.85,12.416,19.41,40.783,19.41,40.783s3.31-4.959,11.12-8.131a81.068,81.068,0,0,1,15-4.4s-14.42-37.611-18.53-54.908A56.888,56.888,0,0,1,1482.9,159.863Z"/>
        <path id="f-b-i-elbow" class="cls-1" d="M1298.8,232.811a56.169,56.169,0,0,1,17.3,5.313,31.17,31.17,0,0,1,9.37,7.522l-7.53,17.153s-7.94,3.834-16.06.163c-8.01-3.622-13.42-12.35-13.42-12.35a17.946,17.946,0,0,0,4.62-6.363C1295.75,238.536,1298.8,232.811,1298.8,232.811Zm204.4,0a56.169,56.169,0,0,0-17.3,5.313,31.17,31.17,0,0,0-9.37,7.522l7.53,17.153s7.94,3.834,16.06.163c8.01-3.622,13.42-12.35,13.42-12.35a17.946,17.946,0,0,1-4.62-6.363C1506.25,238.536,1503.2,232.811,1503.2,232.811Z"/>
        <path id="f-b-i-forearm" class="cls-1" d="M1288.71,251.258a20.948,20.948,0,0,0,12.04,10.544,52.882,52.882,0,0,0,15.55,2.788s-14.35,18.518-18.01,24.374-24.71,32.821-24.71,32.821l-19.66-5.6Zm224.58,0a20.948,20.948,0,0,1-12.04,10.544,52.882,52.882,0,0,1-15.55,2.788s14.35,18.518,18.01,24.374,24.71,32.821,24.71,32.821l19.66-5.6Z"/>
        <path id="f-b-i-wrist" class="cls-1" d="M1253.92,316.186l20.66,4.666-8.6,13.132-18.72-9.933Zm294.16,0-20.66,4.666,8.6,13.132,18.72-9.933Z"/>
        <path id="f-b-i-palm" class="cls-1" d="M1249.39,322.118l17.52,10.866s-0.05,1.355-1.91,11.815c-1.87,10.538-5.55,14.182-5.55,14.182l-24.05-7.666s-3.05-.113,1.47-6.647c2.63-3.789-.98-5.057.46-9.081C1240.27,327.342,1249.39,322.118,1249.39,322.118Zm303.22,0-17.52,10.866s0.05,1.355,1.91,11.815c1.87,10.538,5.55,14.182,5.55,14.182l24.05-7.666s3.05-.113-1.47-6.647c-2.63-3.789.98-5.057-.46-9.081C1561.73,327.342,1552.61,322.118,1552.61,322.118Z"/>
        <path id="f-b-i-fingers" class="cls-1" d="M1248.32,321.984s-7.71,5.477-9.63,12.635a141.4,141.4,0,0,1-5.45,16.071l27.14,7.358s-2.58,24.976-8.02,24.806,3.02-22.359.92-22.359-8.41,26.173-13.01,25.323,5.62-25.569,4.45-26.037-9.29,24.548-13.78,25.221,7.61-25.231,5.86-26.323-10.96,18.567-11.05,18.567c-2.41,0-4.79-1.2-2.75-5.6,5.09-12.126,14.13-28.449,14.42-31.744-0.01-.4-6.95,4.493-11.3,4.471-3.43-.016-4.49-3.978-4.49-3.978s8.06-3.431,13.3-9.981S1248.32,321.984,1248.32,321.984Zm305.36,0s7.71,5.477,9.63,12.635a141.4,141.4,0,0,0,5.45,16.071l-27.14,7.358s2.58,24.976,8.02,24.806-3.02-22.359-.92-22.359,8.41,26.173,13.01,25.323-5.62-25.569-4.45-26.037,9.29,24.548,13.78,25.221-7.61-25.231-5.86-26.323,10.96,18.567,11.05,18.567c2.41,0,4.79-1.2,2.75-5.6-5.09-12.126-14.13-28.449-14.42-31.744,0.01-.4,6.95,4.493,11.3,4.471,3.43-.016,4.49-3.978,4.49-3.978s-8.06-3.431-13.3-9.981S1553.68,321.984,1553.68,321.984Z"/>
      </g>
    </g>
  </g>
</g> -->

  <text class="tooltip" id="tooltip" x="0" y="0">e</text>

  <script type="text/ecmascript">
  <![CDATA[

    var xhttp = new XMLHttpRequest();
    xhttp.onreadystatechange = function() {
    if (this.readyState == 4 && this.status == 200) {
      var resp = JSON.parse(this.responseText);
      myFunction(resp.parts);
      }
    };
    xhttp.open("GET", "../../php/loader.php?params=main_parts", true);
    xhttp.send();

    function myFunction(arr) {
      var out = "";
      var i;
      for(i = 0; i < arr.length; i++) {
          out += "<path " + arr[i].image + " />";
      }
      document.getElementById("outer").innerHTML = out;
      console.log(out);
    }

    function init(evt){

      if ( window.svgDocument == null ){

        svgDocument = evt.target.ownerDocument;
      }
      tooltip = svgDocument.getElementById('tooltip');
    }

    function ShowTooltip(evt, mouseovertext){

    tooltip.setAttributeNS(null,"x",evt.clientX);
    tooltip.setAttributeNS(null,"y",evt.clientY);
    tooltip.firstChild.data = mouseovertext;
    tooltip.setAttributeNS(null,"visibility","visible");
  }

  function HideTooltip(){

    tooltip.setAttributeNS(null,"visibility","hidden");
  }

  ]]>
  </script>
</svg>
