<svg id="figure" xmlns="http://www.w3.org/2000/svg" xmlns:xlink="http://www.w3.org/1999/xlink" width="400" height="700" viewBox="0 0 400 700" onload="init(evt)">
<defs>
    <style>
      .cls-1 {
        fill: #ed1c24;
        opacity: 0;
        fill-rule: evenodd;
      }
      .cls-1:hover {
        opacity: 0.5;
      }
      text {
        font-size: 30px;
        font-weight: 600;
        fill: #fff;
      }
      #f-f-i-head,#f-f-i-neck,#f-f-i-chest,#f-f-i-abdomen,#f-f-i-pelvis,#f-f-i-leg,#f-f-i-hand,
      #m-f-i-head,#f-f-i-neck,#m-f-i-chest,#m-f-i-abdomen,#m-f-i-pelvis,#m-f-i-leg,#m-f-i-hand,
      #f-b-i-head,#f-b-i-neck,#f-b-i-back,#f-b-i-buttock,#f-b-i-leg,#f-b-i-hand,
      #m-b-i-head,#m-b-i-neck,#m-b-i-back,#m-b-i-buttock,#m-b-i-leg,#m-b-i-hand
      {
        display: none;
      }
    </style>
  </defs>

<g id="outer">
  <!-- <g class="male">
    <g class="male_front">
      <path id="m-f-head" data-name="head" class="cls-1 head" d="M197.5-1c23.194,0,30.537,18.929,31.409,43.242,0.062,1.727,5.551-9,5.091,5.258s-6.093,12.347-7.92,17.844C220.182,83.093,206.632,95.473,197.5,96c-9.676.558-23.311-11-28.549-30.757C167.713,60.575,163.07,60.612,161,47.5s5.038-4.018,5.119-5.976C167.11,17.558,174.535-1,197.5-1Z"/>
      <path id="m-f-neck" data-name="neck" class="cls-1 neck" d="M175,79s11.846,18,23.644,18C210.346,97,224,75,224,75s-5.024,18,.3,26.568C230.42,111.415,246,117,246,117s-23.343,13-45.384,13C179.165,130,155,117,155,117s13.557-4.649,17.952-13.957C177.046,94.373,175,79,175,79Z"/>
      <path id="m-f-chest" data-name="chest" class="cls-1 chest" d="M154,116s22.694,14,45.661,14C223.187,130,247,116,247,116s1.656,16.908,5.067,34.092c1.184,5.962,5.217,9.318,5.854,15.625,1.294,12.816,3.02,27.439,2.445,36.7C259.819,211.23,257,215,257,215s-28.193-5-56.661-5C171.312,210,142,215,142,215s-4.708-5.146-5.837-15.6c-0.981-9.091,1.477-22.682,2.879-34.248,0.854-7.049,5.445-11.09,7.28-17.549C150.9,131.493,154,116,154,116Z"/>
      <path id="m-f-abdomen" data-name="abdomen" class="cls-1 abdomen" d="M142,215s30.326-6,59.695-6c27.574,0,54.305,6,54.305,6s-0.328,7.489-1.615,16.982C253.174,240.91,251,251.5,251,262.839A203.99,203.99,0,0,0,256,305s-26.441,14-53.966,14C172.156,319,141,305,141,305s5.257-23.11,5.51-45.909C146.757,236.9,142,215,142,215Z"/>
      <path id="m-f-pelvis" data-name="pelvis" class="cls-1 pelvis" d="M140,304s28.9,15,57.966,15C227.393,319,257,304,257,304l8,26s-57.763,28.4-57.471,51.585c-4.81-.037-7.7-0.075-12.571-0.112C196.82,360.211,136,329,136,329Z"/>
      <path id="m-f-leg" data-name="leg" class="cls-1 leg" d="M135.885,327.945S152.973,338.669,170,349c24.933,17.146,26.364,32.873,26.364,32.873s-1.359,34.016-2.367,44.265c-7.709,36.413-4.824,43.587-5.731,68.583-12.053,35.295-3.544,44.25-4.709,67.784-1.01,17.838-5.206,9.421-6.984,52.578-1.123,20.494,3.061,19.156,2.189,34.459-0.672,11.8-2.031,18.595-2.51,25.7-0.549,8.142-3.957,17.741-3.957,17.741s-5.757,4.257-19.612,2.808c-10.986-6.8-8.439-3.709-13.217-7.8-3.839-3.285-1.829-8.484-.255-11.83,3.739-3.936,5.537,1.029,10.686-16.513,3.17-10.8,1.283-12.985,2.6-31.877,2.015-28.958-13.852-61.612-12.931-91.491,0.312-10.133,6.948-26.026,6.391-35.465-0.714-12.093-2.224-35.438-4.742-45.582-10.1-31.034-10.88-53.363-10.192-75.733,0.373-12.1-.482,21.745-0.1,11.874C132.014,363.572,135.885,327.945,135.885,327.945Zm128.23,1S249.027,338.669,232,349s-26.365,32.873-26.365,32.873S207,415.889,208,426.138c7.709,36.413,4.824,43.587,5.731,68.583,12.053,35.295,3.543,44.25,4.709,67.784,1.01,17.838,5.206,9.421,6.984,52.578,1.123,20.494-3.061,19.156-2.189,34.459,0.671,11.8,2.031,18.595,2.51,25.7,0.549,8.142,3.957,17.741,3.957,17.741s5.757,4.257,19.612,2.808c10.986-6.8,8.439-3.709,13.217-7.8,3.839-3.285,1.829-8.484.254-11.83-3.738-3.936-5.537,1.029-10.685-16.513-3.17-10.8-5.283-9.985-6.6-28.877,6.96-31.053,15.852-64.612,14.931-94.491-0.312-10.133-4.948-26.026-4.391-35.465,0.714-12.093,2.224-35.438,4.742-45.582,10.1-31.034,8.88-53.363,8.191-75.733-0.372-12.1.483,21.745,0.1,11.874C267.986,363.572,264.115,328.945,264.115,328.945Z"/>
      <path id="m-f-hand" data-name="hand" class="cls-1 hand" d="M111.489,141.042s5.538-11.142,12.983-15.586c7.852-4.686,29.4-8.827,29.4-8.827s-2.16,9.071-4.225,20.458c-0.781,4.305-5.151,12.85-7.883,18.312s-0.219,17.439-2.951,28.362-1.332,18.355-3.161,27.433c-9.6,26.57-12.916,32.723-15.353,55.5-4.562,12.462-30.636,58.431-39.208,76.876-1.141,4.605.353,16.543-2.041,31.122,0.543-2.039-13.9,37.169-13.2,37.432-1.081-.407-2.81,1.274-3.5-0.042-2.089-3.994,6.184-22.666,3.156-22.2-1.768.27-6.633,14.472-9.193,22.508-1.173,3.681-3.552,5.185-4.252,5.031-0.5-.111-1.157-2.09-1.624-2.249-1.187-.406,6.562-24.916,5.333-24.708-1.593.269-10.015,28.55-11.292,28.728-1,.14-1.2.806-1.927,0.871-1.462.132-1.378-2.975-1.378-2.975s3.074-12,5.525-19.721c1.683-5.3,3.427-9.338,2.261-9.271-1.451.083-5.966,16.064-8.829,22.641-1.853,4.257-4.567,3.748-4.923,2.74a12.852,12.852,0,0,1-.643-3.537c-0.191-3.33,8.546-21.482,8.172-24.815-0.246-2.191-3.126,2.4-3.037-.1,0.036-1.018-1.9-2.062-1.793-3.132,0.219-2.278,1.213-6.785,3.6-9.86,2.583-3.324,3.29-6.113,6.339-11.424,3.91-6.811.075-5.561,10.009-14.47,7.973-7.15,7.652-22.154,16.452-54.915,4.87-18.131,3.3-17.993,7.853-34.681s12.3-27.918,15.592-43.3c2.291-10.695,7.689-21.311,9.422-30.3,2.181-11.322.958-19.372,0.7-26.512A34.089,34.089,0,0,1,111.489,141.042Zm175.022,0s-5.538-11.142-12.983-15.586c-7.852-4.686-29.4-8.827-29.4-8.827s2.161,9.071,4.226,20.458c0.781,4.305,5.151,12.85,7.883,18.312s0.219,17.439,2.951,28.362,1.332,18.355,3.161,27.433c9.6,26.57,12.916,32.723,15.353,55.5,4.562,12.462,30.636,58.431,39.208,76.876,1.141,4.605-.354,16.543,2.041,31.122-0.544-2.039,13.9,37.169,13.2,37.432,1.081-.407,2.81,1.274,3.5-0.042,2.09-3.994-6.184-22.666-3.155-22.2,1.768,0.27,6.633,14.472,9.192,22.508,1.173,3.681,3.552,5.185,4.252,5.031,0.5-.111,1.158-2.09,1.624-2.249,1.187-.406-6.562-24.916-5.333-24.708,1.593,0.269,10.015,28.55,11.292,28.728,1,0.14,1.2.806,1.927,0.871,1.462,0.132,1.378-2.975,1.378-2.975s-3.074-12-5.526-19.721c-1.683-5.3-3.427-9.338-2.261-9.271,1.451,0.083,5.966,16.064,8.829,22.641,1.853,4.257,4.567,3.748,4.923,2.74a12.859,12.859,0,0,0,.643-3.537c0.191-3.33-8.547-21.482-8.173-24.815,0.246-2.191,3.127,2.4,3.038-.1-0.037-1.018,1.9-2.062,1.793-3.132-0.219-2.278-1.214-6.785-3.6-9.86-2.583-3.324-3.29-6.113-6.339-11.424-3.91-6.811-.075-5.561-10.009-14.47-7.973-7.15-7.652-22.154-16.452-54.915-4.87-18.131-3.3-17.993-7.853-34.681s-12.3-27.918-15.592-43.3c-2.291-10.695-7.69-21.311-9.422-30.3-2.181-11.322-.958-19.372-0.7-26.512A34.089,34.089,0,0,0,286.511,141.042Z"/>
    </g>
    <g class="male_back">
      <path id="m-b-head" data-name="head" class="cls-1 head" d="M605.309,6c21.7,0,30.9,19.831,30.9,43.532,0,1.944,3.011-2.3,4.89,1.583,1.257,6.443-5.249,18.5-7.379,18.829-0.579,1.816-1.293,3.195-2.173,5.469-6.33,10-17.794,15.121-25.623,15.121s-20.438-4.718-26.776-15.8c-0.741-1.9-1.912-5.356-1.912-5.356S569.479,66,569.5,51.782c2.6-4.775,4.909-1.264,4.909-2.251C574.406,25.831,583.608,6,605.309,6Z"/>
      <path id="m-b-neck" data-name="neck" class="cls-1 neck" d="M582.441,78.1s11.1,10.437,23.232,10.437c11.751,0,22.7-10.437,22.7-10.437s-4.926,17.392,1.423,29.278c3.3,6.171,20.632,10.858,20.632,10.858s-22.245,12.349-44.7,12.349c-22.874,0-45.962-12.349-45.962-12.349s17.3-4.616,20.558-10.718C586.676,95.626,582.441,78.1,582.441,78.1Z"/>
      <path id="m-b-buttock" data-name="buttock" class="cls-1 butt" d="M544.357,307.125s30.353,1.672,60.594,1.672c30.019,0,59.928-1.672,59.928-1.672s7.756,50.34,6.472,58.82-12.524,24.319-31.079,25.163c-8.424.383-27.366-5.214-30.567-7.3s-4.593-1.942-9.882.006-21.4,7.735-30.964,7.3c-22.984-1.055-30.433-18.2-31.974-26.163S544.357,307.125,544.357,307.125Z"/>
      <path id="m-b-back" data-name="back" class="cls-1 back" d="M557.337,118c0.983-.328,24.659,12.967,48.71,12.967,22.893,0,43.842-13.622,45.234-12.967-0.819,8.841,8.078,21.549,11.734,31.115,4.376,11.45,2.215,38.293,3.982,65.26-10.295,26.38-10.514,35.012-11.29,43.941s8.755,47.54,8.755,47.54-33.022,4.59-59.241,4.59c-26.622,0-60.447-3.59-60.447-3.59s7.38-34.652,8.35-46.493-19.436-57.022-12.245-96.058c-0.094-8.8,3.847-14.724,5.585-21.5C548.877,133.392,556.763,125.284,557.337,118Z"/>
      <path id="m-b-leg" data-name="leg" class="cls-1 leg" d="M536.885,366.945s11.472,21.347,27.074,22.453c15.725,0.123,37.406-6.525,37.406-6.525s-0.8,11.413-.854,27.142c-0.047,13.379-8.312,27.331-9.514,48.123-2.79,48.27-8.594,54.178-9.731,71.583,2.117,22.009,4.456,28.25,3.291,51.784-1.01,17.838-9.406,37.443-6.984,53.578,1.178,7.842,3.14,12.578,3.189,15.459,0.2,11.813-.031,20.595-0.51,27.7-0.549,8.142-2.957,12.741-2.957,12.741s-9.071,6.1-17.612.808c-10.986-6.8-8.439-9.709-13.217-13.8a8.646,8.646,0,0,1-2.255-10.83c3.739-3.936,5.537,1.029,10.686-16.513,3.17-10.8,1.35-14.314-2.4-32.877-5.576-27.578-13.852-37.612-12.931-67.491,0.312-10.133,3.948-20.026,3.391-29.465-0.714-12.093,2.776-23.438.258-33.582-2.739-40-7.88-51.363-7.191-73.733,0.372-12.1-.483,21.745-0.1,11.874C537.014,397.572,536.885,366.945,536.885,366.945Zm133.23,0s-11.473,21.347-27.074,22.453c-15.725.123-37.406-6.525-37.406-6.525a197.626,197.626,0,0,1,1.854,27.142c0.047,13.379,5.5,31,6.514,50.123,2.408,45.368,8.594,52.178,9.731,69.583-2.117,22.009-2.457,28.25-1.291,51.784,1.01,17.838,9.406,37.443,6.984,53.578-1.178,7.842-3.141,12.578-3.189,15.459-0.2,11.813.031,20.595,0.51,27.7,0.549,8.142,2.957,12.741,2.957,12.741s9.07,6.1,17.612.808c10.986-6.8,8.439-9.709,13.217-13.8,3.839-3.285,2.829-7.484,1.254-10.83-3.738-3.936-8.345,7.646-10.685-15.513-1.132-11.2-.35-15.314,3.4-33.877,5.576-27.578,11.852-35.612,10.931-65.491-0.312-10.133-7.948-22.026-7.391-31.465,0.714-12.093-1.776-23.438.741-33.582,2.74-40,9.881-51.363,9.192-73.733-0.372-12.1.483,21.745,0.1,11.874C666.986,397.572,670.115,366.945,670.115,366.945Z"/>
      <path id="m-b-hand" data-name="hand" class="cls-1 hand" d="M517.074,144.845s4.742-12.064,12.261-16.381c7.93-4.553,27.51-9.549,27.51-9.549s-3,9.042-9.571,23.434a84.571,84.571,0,0,0-5.141,20.261c-0.745,8.884-1.613,14.1-.43,23.376s1.34,19.413-.642,28.459c-16.385,39.33-13.516,42.784-18.288,55.168s-42.269,67.625-36.45,83.135c-0.777,2.923-3.706,18.849-3.706,18.849s-8.176,33.17-12.424,31.491c-1.074-.425-1.832,1.242-2.5-0.084-2.022-4.029,5.566-19.609,2.53-19.2-1.772.239-3.877,14.408-6.572,22.4-1.234,3.661-3.639,5.124-4.336,4.959-0.5-.12-1.122-2.109-1.586-2.277-1.18-.425,6.983-24.8,5.75-24.614-1.6.242-10.462,26.377-11.742,26.534-1,.123-1.216.785-1.941,0.838-1.464.108-1.327-3-1.327-3s3.242-9.951,5.824-17.625c1.772-5.269,3.583-9.162,2.417-9.231-1.253-.075-4.6,12.855-8.628,20.087-2.259,4.057-4.195,4.054-4.534,3.041a6.332,6.332,0,0,1-.583-2.547c-0.134-3.333,7.111-23.266,6.793-26.6-0.209-2.2-1.266,6.161-1.135,3.663,0.053-1.018-2.861-3.061-2.74-4.128,0.257-2.274,3.14-8.187,4.719-11.748,3.436-7.751,5.613-15.275,13.63-22.565,3.475-3.159,8.278-15.161,9.093-18.591,2.192-9.221,3.959-21.611,6.047-27.989,5.841-17.842,2.7-21.6,8.438-39.459,2.96-9.218,10.766-23.74,14.321-39.068,2.472-10.655,7.05-21.246,8.934-30.208a107.411,107.411,0,0,0,2.148-26.479A28.183,28.183,0,0,1,517.074,144.845Zm172.852,0s-4.742-12.064-12.261-16.381c-7.93-4.553-27.511-9.549-27.511-9.549s3,9.042,9.572,23.434a84.571,84.571,0,0,1,5.141,20.261c0.745,8.884,1.613,14.1.43,23.376s-1.341,19.413.642,28.459c16.385,39.33,13.516,42.784,18.288,55.168s42.269,67.625,36.45,83.135c0.776,2.923,3.706,18.849,3.706,18.849s8.176,33.17,12.424,31.491c1.074-.425,1.831,1.242,2.5-0.084,2.022-4.029-5.566-19.609-2.531-19.2,1.773,0.239,3.878,14.408,6.573,22.4,1.234,3.661,3.639,5.124,4.336,4.959,0.5-.12,1.122-2.109,1.586-2.277,1.18-.425-6.983-24.8-5.75-24.614,1.6,0.242,10.462,26.377,11.742,26.534,1,0.123,1.216.785,1.941,0.838,1.464,0.108,1.327-3,1.327-3s-3.242-9.951-5.824-17.625c-1.772-5.269-3.583-9.162-2.417-9.231,1.253-.075,4.6,12.855,8.628,20.087,2.258,4.057,4.2,4.054,4.534,3.041a6.332,6.332,0,0,0,.583-2.547c0.134-3.333-7.111-23.266-6.793-26.6,0.209-2.2,1.266,6.161,1.135,3.663-0.053-1.018,2.861-3.061,2.74-4.128-0.257-2.274-3.14-8.187-4.719-11.748-3.437-7.751-5.613-15.275-13.63-22.565-3.475-3.159-8.278-15.161-9.093-18.591-2.192-9.221-3.96-21.611-6.047-27.989-5.841-17.842-2.7-21.6-8.438-39.459-2.96-9.218-10.766-23.74-14.321-39.068-2.472-10.655-7.05-21.246-8.934-30.208a107.411,107.411,0,0,1-2.148-26.479A28.183,28.183,0,0,0,689.926,144.845Z"/>
    </g>
  </g>
  <g class="female">
    <g class="female_front">
      <path id="f-f-head" data-name="head" class="cls-1 head" d="M1000.31,0c21.7,0,30.9,19.831,30.9,43.532,0,1.944,3.01-2.3,4.89,1.583,1.26,6.443-5.25,18.5-7.38,18.829-0.58,1.816-1.29,3.195-2.17,5.469-6.33,10-17.79,22.121-25.62,22.121s-20.441-11.718-26.779-22.8c-0.741-1.9-1.912-5.355-1.912-5.355S964.479,60,964.5,45.782c2.6-4.775,4.909-1.264,4.909-2.251C969.406,19.831,978.608,0,1000.31,0Z"/>
      <path id="f-f-neck" data-name="neck" class="cls-1 neck" d="M977.441,74.1s11.1,16.437,23.229,16.437c11.75,0,23.7-17.437,23.7-17.437s-5.92,20.392.42,32.278c3.3,6.171,20.64,9.858,20.64,9.858s-22.25,11.349-44.7,11.349c-22.874,0-46.962-11.349-46.962-11.349s19.3-3.616,22.557-9.718C982.676,93.626,977.441,74.1,977.441,74.1Z"/>
      <path id="f-f-chest" data-name="chest" class="cls-1 chest" d="M953.337,115c0.983-.328,24.659,10.967,48.713,10.967,22.89,0,43.84-11.622,45.23-10.967-0.82,8.841.2,7.194,2.73,17.115,1.7,6.628,5.16,12.83,4.99,21.26,3.67,43.4-1.54,55.481-1.54,55.481s-26.02-8.41-52.24-8.41c-26.621,0-53.446,8.41-53.446,8.41s-4.513-3.378-2.895-55.551c-0.094-8.8,3.847-14.724,5.585-21.5C952.877,122.392,952.763,122.284,953.337,115Z"/>
      <path id="f-f-abdomen" data-name="abdomen" class="cls-1 abdomen" d="M947.336,207c0.984-.328,30.66-7.033,54.714-7.033,22.89,0,49.84,6.378,51.23,7.033-0.67,7.291-3.04,18.144-3.28,30.375,6.11,32.64,10.46,51.481,10.46,51.481s-33.02,16.59-59.24,16.59c-26.621,0-60.446-15.59-60.446-15.59s2.817-17.725,9.105-46.551C949.746,230.87,946.862,213.024,947.336,207Z"/>
      <path id="f-f-pelvis" data-name="pelvis" class="cls-1 pelvis" d="M940.357,289.125S970.71,304.8,1000.95,304.8c30.02,0,59.93-15.672,59.93-15.672l2.47,13.82s-4.52,5.343-28.08,20.163c-23.55,17.5-27.64,25.765-29.56,29.7-3.21-2.087-4.6-1.942-9.887.006-7.726-11.45-11.861-17.491-31.964-31.7-18.883-12.993-26.974-18.163-26.974-18.163Z"/>
      <path id="f-f-leg" data-name="leg" class="cls-1 leg" d="M936.885,302.945s10.53,5.6,29.074,18.453a115.521,115.521,0,0,1,29.405,30.475,244.314,244.314,0,0,1,1.147,26.142c-0.047,13.379-2.475,27.4-4.514,48.123-2.1,21.356-3.824,45.587-4.731,70.583,2.117,22.009,5.457,31.25,4.291,54.784-1.01,17.838-5.091,35.287-5.984,51.578-1.123,20.494,1.061,26.156.189,41.459-0.671,11.8-.031,32.595-0.51,39.7-0.549,8.142-3.957,12.741-3.957,12.741s-10.223,3-17.612,2.808-14.439,1.291-19.217-2.8c-3.839-3.285-3.829-9.484-2.255-12.83,3.739-3.936,11.537-18.971,16.686-36.513,3.17-10.8.283-13.985,1.6-32.877,2.015-28.958-12.852-66.612-11.931-96.491,0.312-10.133,3.948-20.026,3.391-29.465a186.363,186.363,0,0,0-4.742-33.582c-10.1-31.034-17.88-52.363-17.192-74.733,0.373-12.1-.482,21.745-0.1,11.874C927.761,346.356,936.885,302.945,936.885,302.945Zm126.465,0s-9.9,6.6-28.93,19.453a99.9,99.9,0,0,0-28.55,29.475,245.7,245.7,0,0,0-1.15,26.142c0.05,13.379,2.48,27.4,4.52,48.123,2.1,21.356,3.82,45.587,4.73,70.583-2.12,22.009-5.46,31.25-4.29,54.784,1.01,17.838,5.09,35.287,5.98,51.578,1.13,20.494.94,39.156,1.81,54.459,0.68,11.8-.96,17.595-0.49,24.7a59.579,59.579,0,0,0,2.96,14.741c0.03-.011,2.49,3.537,19.55,2.78,9.66-.569,14.15.756,18.28-3.77s2.04-11.059,1.25-12.83c-5.9-5.9-8.53-13.971-13.68-31.513-3.17-10.8-4.13-17.946-3.6-36.877,1.01-36.215,6.19-33.747,10.93-96.491-0.53-10.123-3.95-20.026-3.39-29.465a185.835,185.835,0,0,1,4.74-33.582c10.1-31.034,14.43-50.984,17.19-77.82S1063.35,302.945,1063.35,302.945Z"/>
      <path id="f-f-hand" data-name="hand" class="cls-1 hand" d="M921.961,134.757s7.614-11.684,15.43-15.438A48.724,48.724,0,0,1,954.337,115a156.594,156.594,0,0,1-4.065,18.264c-1.166,4.216-3.352,9.309-4.252,14.99a140.227,140.227,0,0,0-1.512,28.341c0.5,9.333.909,19.606-1.732,28.482-11.956,25.6-17.61,41.532-23.277,53.532s-21.492,46.083-31.692,63.68c-1.551,4.484.457,6.046-3.392,14.787-3.888,11.031-6.482,14.416-6.482,14.416s-2.944,24.02-7.057,22.033c-1.04-.5-1.918,1.106-2.485-0.267-1.721-4.166,5.214-22.286,2.157-22.1-1.785.109-4.923,14.085-8.2,21.858-1.5,3.56-4,4.843-4.688,4.627-0.491-.156-0.964-2.186-1.415-2.386-1.145-.511,8.782-24.223,7.539-24.127-1.61.124-12.368,25.539-13.655,25.6-1,.049-1.271.693-2,0.693-1.467,0-1.1-3.087-1.1-3.087s3.964-9.687,7.1-17.151c2.154-5.124,4.245-8.875,3.087-9.029-1.244-.166-7.525,12.337-12.072,19.255-2.549,3.879-4.554,4.732-4.817,3.7a12.853,12.853,0,0,1-.322-3.58c0.11-3.334,12.514-21.215,12.442-24.568-0.047-2.205-8.826,2.093-8.512-.389q0.192-1.517.488-3.1c0.423-2.249,4.538-3.39,7.2-6.238,2.872-3.077,3.012-9.306,8.154-12.633s1.32,1.987,9.638-8.447,7.288-11.372,10.787-22.568,4.316-17.831,11.2-42.809c9.981-15.878,12.771-27.876,17.44-42.9,3.246-10.445,4.6-20.891,7.132-29.692,3.193-11.079,2.7-18.116,3.084-25.25A48.64,48.64,0,0,1,921.961,134.757Zm157.079-1s-5.61-9.684-13.43-13.438c-8.24-3.959-18.95-5.321-18.95-5.321s-0.02,7.109,3.07,18.264c1.16,4.216,3.35,9.309,4.25,14.99,1.39,8.8,1.01,19.008.51,28.341a87.285,87.285,0,0,0,3.73,28.482c11.96,25.6,16.61,43.532,22.28,55.532s19.23,32.55,32.69,61.68c1.55,4.484-1.42,7.41,4.39,14.787,3.89,11.031,5.49,14.416,5.49,14.416s2.94,24.02,7.05,22.033c1.04-.5,1.92,1.106,2.49-0.267,1.72-4.166-5.22-22.286-2.16-22.1,1.79,0.109,4.93,14.085,8.2,21.858,1.5,3.56,4,4.843,4.69,4.627,0.49-.156.96-2.186,1.41-2.386,1.15-.511-8.78-24.223-7.54-24.127,1.61,0.124,12.37,25.539,13.66,25.6,1,0.049,1.27.693,2,.693,1.46,0,1.1-3.087,1.1-3.087s-3.96-9.687-7.1-17.151c-2.15-5.124-4.25-8.875-3.09-9.029,1.25-.166,7.53,12.337,12.07,19.255,2.55,3.879,4.56,4.732,4.82,3.7a12.674,12.674,0,0,0,.32-3.58c-0.11-3.334-15.51-26.215-15.44-29.568,0.05-2.205,11.83,8.093,11.51,5.611-0.12-1.011-.29-2.044-0.49-3.1-0.42-2.249-3.53-4.39-6.19-7.238-2.87-3.077-2.67-6.566-7.16-11.633-5.14-3.327-3.32.987-11.63-9.447s-7.78-9.948-12.79-22.568-4.67-19.341-12.2-43.809c-9.98-15.878-12.77-26.876-17.44-41.9-3.25-10.445-5.12-17.845-6.13-29.692-1.24-11.949-.7-19.116-1.09-26.25A48.8,48.8,0,0,0,1079.04,133.757Z"/>
    </g>
    <g class="female_back">
      <path id="f-b-head" data-name="head" class="cls-1 head" d="M1400.31,0c21.7,0,30.9,19.831,30.9,43.532,0,1.944,3.01-2.3,4.89,1.583,1.26,6.443-5.25,18.5-7.38,18.829-0.58,1.816-1.29,3.195-2.17,5.469-6.33,10-17.79,15.121-25.62,15.121s-20.44-4.718-26.78-15.8c-0.74-1.9-1.91-5.355-1.91-5.355s-7.76-3.377-7.74-17.595c2.6-4.775,4.91-1.264,4.91-2.251C1369.41,19.831,1378.61,0,1400.31,0Z"/>
      <path id="f-b-neck" data-name="neck" class="cls-1 neck" d="M1377.44,74.1s11.1,10.437,23.23,10.437c11.75,0,22.7-10.437,22.7-10.437s-4.92,17.392,1.42,29.278c3.3,6.171,20.64,10.858,20.64,10.858s-22.25,12.349-44.7,12.349c-22.87,0-45.96-12.349-45.96-12.349s17.3-4.616,20.56-10.718C1381.68,91.626,1377.44,74.1,1377.44,74.1Z"/>
      <path id="f-b-buttock" data-name="buttock" class="cls-1 butt" d="M1340.36,289.125s30.35,1.672,60.59,1.672c30.02,0,59.93-1.672,59.93-1.672l9.47,50.82s-15.52,19.319-34.08,20.163c-8.42.383-27.36-5.214-30.56-7.3s-4.6-1.942-9.89.006-21.4,7.735-30.96,7.3c-22.98-1.055-34.97-22.163-34.97-22.163Z"/>
      <path id="f-b-back" data-name="back" class="cls-1 back" d="M1353.34,113c0.98-.328,24.66,12.967,48.71,12.967,22.89,0,43.84-13.622,45.23-12.967-0.82,8.841.2,9.194,2.73,19.115,1.7,6.628,6.16,12.83,5.99,21.26,13.81,19.147-6.52,77.012-7.29,85.941s11.75,48.54,11.75,48.54-33.02,4.59-59.24,4.59c-26.62,0-60.45-4.59-60.45-4.59s10.38-34.652,11.35-46.493-14.43-49.022-7.24-88.058c-0.1-8.8,3.85-14.724,5.58-21.5C1352.88,122.392,1352.76,120.284,1353.34,113Z"/>
      <path id="f-b-leg" data-name="leg" class="cls-1 leg" d="M1329.89,336.945s10.62,20.107,30.07,21.453c15.72,0.123,35.4-5.525,35.4-5.525a211.974,211.974,0,0,1,1.15,25.142c-0.05,13.379-2.47,27.4-4.51,48.123-2.1,21.356-3.83,45.587-4.73,70.583,2.11,22.009,5.45,31.25,4.29,54.784-1.01,17.838-5.09,35.287-5.99,51.578-1.12,20.494,1.06,26.156.19,41.459-0.67,11.8-.03,23.595-0.51,30.7-0.55,8.142-3.95,12.741-3.95,12.741s-9.08,6.1-17.62.808c-10.98-6.8-8.44-9.709-13.21-13.8a8.651,8.651,0,0,1-2.26-10.83c3.74-3.936,5.54,1.029,10.69-16.513,3.17-10.8.28-13.985,1.59-32.877,2.02-28.958-12.85-66.612-11.93-96.491,0.32-10.133,3.95-20.026,3.4-29.465a186.7,186.7,0,0,0-4.75-33.582C1331.7,407.578,1329.89,336.945,1329.89,336.945Zm140.46,3s-17.01,22.876-42.93,18.453-21.55-5.525-21.55-5.525a214.72,214.72,0,0,0-1.15,25.142c0.05,13.379,2.48,27.4,4.52,48.123,2.1,21.356,3.82,45.587,4.73,70.583-2.12,22.009-5.46,31.25-4.29,54.784,1.01,17.838,5.09,35.287,5.98,51.578,1.13,20.494.94,39.156,1.81,54.459,0.68,11.8-.96,8.595-0.49,15.7,0.55,8.142,3.96,12.741,3.96,12.741,0.03-.011,12.46,6.519,19.55,2.78s9.15-13.243,13.28-17.77-0.96-7.059-1.75-8.83c-5.9-5.9-1.53,7.029-6.68-10.513-3.17-10.8-4.13-17.946-3.6-36.877,1.01-36.215,13.97-39.1,10.93-96.491-0.53-10.123-3.95-20.026-3.39-29.465a185.835,185.835,0,0,1,4.74-33.582c10.1-31.034,14.57-48.816,17.19-77.82C1472.02,403.533,1470.35,339.945,1470.35,339.945Z"/>
      <path id="f-b-hand" data-name="hand" class="cls-1 hand" d="M1322.96,133.757s5.61-11.684,13.43-15.438A68.96,68.96,0,0,1,1353.34,113a83.635,83.635,0,0,1-3.07,20.264c-1.16,4.216-3.35,9.309-4.25,14.99a140.519,140.519,0,0,0-1.51,28.341c0.5,9.333,1.91,19.606-.73,28.482-11.96,25.6-18.61,41.532-24.28,53.532s-39.49,52.083-49.69,69.681c-1.55,4.483-4.46,5.016-4.39,14.786-3.89,11.031-5.49,14.416-5.49,14.416s-2.94,24.02-7.05,22.033c-1.04-.5-1.92,1.106-2.49-0.266-1.72-4.167,5.22-22.287,2.16-22.1-1.79.109-4.93,14.085-8.2,21.858-1.5,3.56-4,4.843-4.69,4.627-0.49-.156-0.96-2.186-1.41-2.386-1.15-.511,8.78-24.223,7.54-24.127-1.61.124-12.37,25.539-13.66,25.6-1,.049-1.27.693-2,0.693-1.46,0-1.1-3.087-1.1-3.087s3.96-9.687,7.1-17.151c2.15-5.124,4.25-8.875,3.09-9.029-1.25-.166-7.53,12.337-12.07,19.255-2.55,3.879-4.56,4.732-4.82,3.7a12.674,12.674,0,0,1-.32-3.58c0.11-3.334,15.51-32.215,15.44-35.568-0.05-2.205-14.83,7.093-14.51,4.611,0.12-1.011.29-2.044,0.49-3.1,0.42-2.249,4.53-3.39,7.19-6.238,2.87-3.077,4.01-5.306,9.16-8.633s3.32,3.987,11.63-6.447,12.92-19.58,14.79-22.568c2.49-3.981-.87-0.031,8.27-16.427s5.95-17.5,15.93-33.382,12.77-26.876,17.44-41.9c3.25-10.445,5.6-20.891,8.13-29.692a107.256,107.256,0,0,0,4.09-26.25A48.8,48.8,0,0,1,1322.96,133.757Zm156.08,0s-5.61-11.684-13.43-15.438c-8.24-3.959-18.95-5.321-18.95-5.321a83.635,83.635,0,0,0,3.07,20.264c1.16,4.216,3.35,9.309,4.25,14.99,1.39,8.8,6.01,19.008,5.51,28.341s-3.91,19.606-1.27,28.482c11.96,25.6,18.61,41.532,24.28,53.532s39.49,52.083,49.69,69.681c1.55,4.483,4.46,5.016,4.39,14.786,3.89,11.031,5.49,14.416,5.49,14.416s2.94,24.02,7.05,22.033c1.04-.5,1.92,1.106,2.49-0.266,1.72-4.167-5.22-22.287-2.16-22.1,1.79,0.109,4.93,14.085,8.2,21.858,1.5,3.56,4,4.843,4.69,4.627,0.49-.156.96-2.186,1.41-2.386,1.15-.511-8.78-24.223-7.54-24.127,1.61,0.124,12.37,25.539,13.66,25.6,1,0.049,1.27.693,2,.693,1.46,0,1.1-3.087,1.1-3.087s-3.96-9.687-7.1-17.151c-2.16-5.124-4.25-8.875-3.09-9.029,1.25-.166,7.53,12.337,12.07,19.255,2.55,3.879,4.56,4.732,4.82,3.7a12.674,12.674,0,0,0,.32-3.58c-0.11-3.334-15.51-32.215-15.44-35.568,0.05-2.205,14.83,7.093,14.51,4.611-0.12-1.011-.29-2.044-0.49-3.1-0.42-2.249-4.53-3.39-7.19-6.238-2.87-3.077-4.01-5.306-9.16-8.633s-3.32,3.987-11.63-6.447-12.92-19.58-14.79-22.568c-2.49-3.981.87-.031-8.27-16.427s-5.95-17.5-15.93-33.382-12.77-26.876-17.44-41.9c-3.25-10.445-5.6-20.891-8.13-29.692a107.256,107.256,0,0,1-4.09-26.25A48.8,48.8,0,0,0,1479.04,133.757Z"/>
    </g>
  </g> -->
</g>



  <text class="tooltip" id="tooltip" x="0" y="0">e</text>

  <script xlink:href="../js/svg.js" />

</svg>
