<svg id="icons" xmlns="http://www.w3.org/2000/svg" width="400" height="80" viewBox="0 0 1000 200">
<defs>
    <style>
      .cls-1 {
        fill: #fff;
        stroke: #000;
        stroke-width: 1px;
      }
      .cls-2 {
        fill: #fff;
      }
      .cls-1, .cls-2 {
        fill-rule: evenodd;
      }

    </style>
  </defs>
  <path id="_3" data-name="3" class="cls-1" d="M242,63.912l57.406,5.529L355,63.912v84.323a114.487,114.487,0,0,0-24.148-1.6,217.218,217.218,0,0,0-31.9,4.367,163.826,163.826,0,0,0-28.609-4.186A165.729,165.729,0,0,0,242,148.235V63.912Z"/>
  <path id="_2" data-name="2" class="cls-1" d="M244.756,61.147l55.1,4.147,52.388-4.147v81.559s-13.718-.333-27.353.71a239.123,239.123,0,0,0-25.485,3.437,239.443,239.443,0,0,0-25.637-3.382c-14.332-1.061-29.013-.765-29.013-0.765V61.147Z"/>
  <path id="_1" data-name="1" class="cls-1" d="M247.512,57l27.249,1.414a118.766,118.766,0,0,1,24.645,4.115,98.924,98.924,0,0,1,22.688-4.058L349.488,57v80.176A200.457,200.457,0,0,0,327,138.815c-13.848,1.86-27.589,5.273-27.589,5.273s-13.707-2.948-27.822-4.413a231.229,231.229,0,0,0-24.072-1.116V57Z"/>
  <path id="line" class="cls-1" d="M299.878,62.529v80.177"/>
  <path id="info" class="cls-2" d="M499.5,60A39.5,39.5,0,1,1,460,99.5,39.5,39.5,0,0,1,499.5,60Zm1.737,12.778a5.806,5.806,0,1,1-5.806,5.806A5.806,5.806,0,0,1,501.237,72.778Zm-8.708,15.685s6.54-1.511,10.32-1c1.755,0.239,2.46,2.738,2.46,2.738s-2.541,19.628-2.389,27.831c0.04,2.167,2.97,3.537,2.97,3.537s-4.1,2.5-7.166,2.085c-3.318-.452-4.629-0.873-5.614-3.828s2.553-18.965,2.4-27.4C495.463,90.015,492.529,88.463,492.529,88.463Z"/>
  <path id="rotate-2" data-name="rotate" class="cls-2" d="M728.757,61.856C752.507,68.572,769,83.35,769,100.5a27.99,27.99,0,0,1-3.373,13.163c-7.976-11.3-21.388-19.29-36.8-23.781m-52.1-2.161c-18.015,3.677-33.855,12.2-42.4,25.85A27.957,27.957,0,0,1,631,100.5c0-18.4,18.993-34.077,45.565-39.986m42.588,105.827C747.943,161.228,769,144.879,769,125.5a27.99,27.99,0,0,0-3.373-13.163c-10.538,15.512-28,25.3-47.118,29.193-1.578.321,8.234,12.843,8.234,12.843m-37.989-.364s-8.507-12.471-9.749-12.745c-18.2-4.013-34.643-13.573-44.68-28.835A27.957,27.957,0,0,0,631,125.5c0,18.9,20.034,34.922,47.737,40.444"/>
  <path id="_0" data-name="0" class="cls-2" d="M683.272,84.178h4.712V60.225h-4.712l-1.9,4.8h1.9v19.15ZM704.755,70.89a6.631,6.631,0,1,0-10.516,0,7.686,7.686,0,0,0,5.242,13.178h0.031a7.626,7.626,0,0,0,7.552-7.647A7.778,7.778,0,0,0,704.755,70.89ZM699.481,79.3a2.876,2.876,0,0,1,0-5.751h0.031a2.876,2.876,0,0,1,0,5.751h-0.031Zm0-10.555a1.889,1.889,0,1,1,.031,0h-0.031Zm17.607-7.722h0a7.634,7.634,0,0,0-7.552,7.679v8.627a7.567,7.567,0,1,0,15.134,0V68.7A7.639,7.639,0,0,0,717.088,61.018Zm-2.84,16.306h0V68.7a2.84,2.84,0,1,1,5.679,0v8.627A2.84,2.84,0,1,1,714.248,77.324Z"/>
  <path id="bottom" class="cls-2" d="M80.166,128.662s-8.912.194-22.929-5.861c-1.764,15.166-6.388,22.787-6.388,22.787l3.99-1.319c29.189,30.685,95.954-39.946,90.49-53.014-4.749,11.732-52.107,56.381-68.306,40.206l3.141-2.8Z"/>
  <path id="top" class="cls-2" d="M117.834,73.338s8.912-.194,22.929,5.861c1.764-15.167,6.388-22.788,6.388-22.788l-3.99,1.319c-29.189-30.684-95.954,39.946-90.49,53.014,4.749-11.732,52.107-56.381,68.306-40.206l-3.141,2.8Z"/>
  <path id="surface" class="cls-2" d="M855,94h18.244c19.535-.952-8.371,36.956,26.715,43,37-6.131,7.738-44.111,27.021-43H945a5,5,0,0,1,5,5v40a5,5,0,0,1-5,5H855a5,5,0,0,1-5-5V99A5,5,0,0,1,855,94Z"/>
  <path id="hair" class="cls-2" d="M915,30c-9.242,46.024,6.08,73.111,1,92-1.429,6.19-9.582,11-14,11h-4c-4.418,0-12.254-4.81-14-11C880.761,103.166,890.9,67.038,915,30Z"/>
</svg>
